<svg width="335" height="71" viewBox="0 0 335 71" fill="none" xmlns="http://www.w3.org/2000/svg">
<rect x="0.5" y="0.5" width="334" height="70" stroke="#31FFD7"/>
<path d="M42.76 46H53.24C56 46 57.1 44.31 57.23 42.25L57.75 33.99C57.89 31.83 56.17 30 54 30C53.39 30 52.83 29.65 52.55 29.11L51.83 27.66C51.37 26.75 50.17 26 49.15 26H46.86C45.83 26 44.63 26.75 44.17 27.66L43.45 29.11C43.17 29.65 42.61 30 42 30C39.83 30 38.11 31.83 38.25 33.99L38.77 42.25C38.89 44.31 40 46 42.76 46Z" stroke="#31FFD7" stroke-width="1.5" stroke-linecap="round" stroke-linejoin="round"/>
<path d="M46.5 32H49.5" stroke="#31FFD7" stroke-width="1.5" stroke-linecap="round" stroke-linejoin="round"/>
<path d="M48 42C49.79 42 51.25 40.54 51.25 38.75C51.25 36.96 49.79 35.5 48 35.5C46.21 35.5 44.75 36.96 44.75 38.75C44.75 40.54 46.21 42 48 42Z" stroke="#31FFD7" stroke-width="1.5" stroke-linecap="round" stroke-linejoin="round"/>
<path d="M68.9874 30.017V28.4545H79.8965V30.017H75.3226V43H73.5613V30.017H68.9874ZM84.1135 43.2557C83.4222 43.2557 82.7948 43.1255 82.2314 42.8651C81.6679 42.5999 81.2205 42.2188 80.889 41.7216C80.5576 41.2197 80.3919 40.6136 80.3919 39.9034C80.3919 39.2784 80.515 38.7718 80.7612 38.3835C81.0074 37.9905 81.3365 37.6828 81.7484 37.4602C82.1603 37.2377 82.6149 37.072 83.112 36.9631C83.6139 36.8494 84.1182 36.7595 84.6248 36.6932C85.2877 36.608 85.8251 36.544 86.237 36.5014C86.6537 36.4541 86.9567 36.3759 87.1461 36.267C87.3403 36.1581 87.4373 35.9687 87.4373 35.6989V35.642C87.4373 34.9413 87.2456 34.3968 86.862 34.0085C86.4833 33.6203 85.908 33.4261 85.1362 33.4261C84.336 33.4261 83.7086 33.6013 83.2541 33.9517C82.7995 34.3021 82.4799 34.6761 82.2953 35.0739L80.7044 34.5057C80.9885 33.8428 81.3672 33.3267 81.8407 32.9574C82.319 32.5833 82.8398 32.3229 83.4032 32.1761C83.9714 32.0246 84.5301 31.9489 85.0794 31.9489C85.4297 31.9489 85.8322 31.9915 86.2868 32.0767C86.746 32.1572 87.1887 32.3253 87.6149 32.581C88.0458 32.8366 88.4032 33.2225 88.6873 33.7386C88.9714 34.2547 89.1135 34.946 89.1135 35.8125V43H87.4373V41.5227H87.3521C87.2385 41.7595 87.0491 42.0128 86.7839 42.2827C86.5188 42.5526 86.166 42.7822 85.7257 42.9716C85.2853 43.161 84.7479 43.2557 84.1135 43.2557ZM84.3691 41.75C85.032 41.75 85.5907 41.6198 86.0453 41.3594C86.5046 41.099 86.8502 40.7628 87.0822 40.3509C87.319 39.9389 87.4373 39.5057 87.4373 39.0511V37.517C87.3663 37.6023 87.21 37.6804 86.9686 37.7514C86.7318 37.8177 86.4572 37.8769 86.1447 37.929C85.8369 37.9763 85.5363 38.0189 85.2427 38.0568C84.9539 38.09 84.7195 38.1184 84.5396 38.142C84.104 38.1989 83.6968 38.2912 83.318 38.419C82.944 38.5421 82.6409 38.7292 82.4089 38.9801C82.1816 39.2263 82.068 39.5625 82.068 39.9886C82.068 40.571 82.2834 41.0114 82.7143 41.3097C83.1499 41.6032 83.7015 41.75 84.3691 41.75ZM93.7353 39.0227L93.7069 36.9489H94.0478L98.8205 32.0909H100.894L95.8091 37.233H95.6671L93.7353 39.0227ZM92.1728 43V28.4545H93.8489V43H92.1728ZM99.1046 43L94.8432 37.6023L96.0364 36.4375L101.235 43H99.1046ZM107.176 43.2273C106.125 43.2273 105.218 42.9953 104.456 42.5312C103.699 42.0625 103.114 41.4091 102.702 40.571C102.295 39.7282 102.091 38.7481 102.091 37.6307C102.091 36.5133 102.295 35.5284 102.702 34.6761C103.114 33.8191 103.687 33.1515 104.421 32.6733C105.159 32.1903 106.021 31.9489 107.006 31.9489C107.574 31.9489 108.135 32.0436 108.689 32.233C109.243 32.4223 109.747 32.7301 110.202 33.1562C110.656 33.5777 111.019 34.1364 111.289 34.8324C111.558 35.5284 111.693 36.3854 111.693 37.4034V38.1136H103.284V36.6648H109.989C109.989 36.0492 109.866 35.5 109.619 35.017C109.378 34.5341 109.032 34.1529 108.583 33.8736C108.137 33.5942 107.612 33.4545 107.006 33.4545C106.338 33.4545 105.761 33.6203 105.273 33.9517C104.79 34.2784 104.418 34.7045 104.158 35.2301C103.897 35.7557 103.767 36.3191 103.767 36.9205V37.8864C103.767 38.7102 103.909 39.4086 104.193 39.9815C104.482 40.5497 104.882 40.983 105.394 41.2812C105.905 41.5748 106.499 41.7216 107.176 41.7216C107.617 41.7216 108.014 41.66 108.369 41.5369C108.729 41.4091 109.039 41.2197 109.3 40.9688C109.56 40.7131 109.762 40.3958 109.904 40.017L111.523 40.4716C111.352 41.0208 111.066 41.5038 110.664 41.9205C110.261 42.3324 109.764 42.6544 109.172 42.8864C108.58 43.1136 107.915 43.2273 107.176 43.2273ZM120.095 43V28.4545H125.01C126.151 28.4545 127.084 28.6605 127.808 29.0724C128.538 29.4796 129.077 30.0312 129.428 30.7273C129.778 31.4233 129.953 32.1998 129.953 33.0568C129.953 33.9138 129.778 34.6927 129.428 35.3935C129.082 36.0942 128.547 36.6529 127.823 37.0696C127.098 37.4815 126.17 37.6875 125.039 37.6875H121.516V36.125H124.982C125.763 36.125 126.39 35.9901 126.864 35.7202C127.337 35.4503 127.681 35.0857 127.894 34.6264C128.111 34.1624 128.22 33.6392 128.22 33.0568C128.22 32.4744 128.111 31.9536 127.894 31.4943C127.681 31.035 127.335 30.6752 126.857 30.4148C126.378 30.1496 125.744 30.017 124.953 30.017H121.857V43H120.095ZM134.24 36.4375V43H132.563V28.4545H134.24V33.7955H134.382C134.637 33.232 135.021 32.7846 135.532 32.4531C136.048 32.117 136.735 31.9489 137.592 31.9489C138.335 31.9489 138.986 32.098 139.545 32.3963C140.104 32.6899 140.537 33.142 140.845 33.7528C141.157 34.3589 141.313 35.1307 141.313 36.0682V43H139.637V36.1818C139.637 35.3153 139.412 34.6454 138.963 34.1719C138.517 33.6937 137.9 33.4545 137.109 33.4545C136.56 33.4545 136.067 33.5705 135.632 33.8026C135.201 34.0346 134.86 34.3731 134.609 34.8182C134.363 35.2633 134.24 35.803 134.24 36.4375ZM148.812 43.2273C147.827 43.2273 146.963 42.9929 146.219 42.5241C145.481 42.0554 144.903 41.3996 144.486 40.5568C144.074 39.714 143.868 38.7292 143.868 37.6023C143.868 36.4659 144.074 35.474 144.486 34.6264C144.903 33.7789 145.481 33.1207 146.219 32.652C146.963 32.1832 147.827 31.9489 148.812 31.9489C149.796 31.9489 150.658 32.1832 151.397 32.652C152.14 33.1207 152.718 33.7789 153.13 34.6264C153.546 35.474 153.755 36.4659 153.755 37.6023C153.755 38.7292 153.546 39.714 153.13 40.5568C152.718 41.3996 152.14 42.0554 151.397 42.5241C150.658 42.9929 149.796 43.2273 148.812 43.2273ZM148.812 41.7216C149.56 41.7216 150.175 41.5298 150.658 41.1463C151.141 40.7628 151.499 40.2585 151.731 39.6335C151.963 39.0085 152.079 38.3314 152.079 37.6023C152.079 36.8731 151.963 36.1937 151.731 35.5639C151.499 34.9342 151.141 34.4252 150.658 34.0369C150.175 33.6487 149.56 33.4545 148.812 33.4545C148.064 33.4545 147.448 33.6487 146.965 34.0369C146.482 34.4252 146.125 34.9342 145.893 35.5639C145.661 36.1937 145.545 36.8731 145.545 37.6023C145.545 38.3314 145.661 39.0085 145.893 39.6335C146.125 40.2585 146.482 40.7628 146.965 41.1463C147.448 41.5298 148.064 41.7216 148.812 41.7216ZM161.058 32.0909V33.5114H155.404V32.0909H161.058ZM157.052 29.4773H158.728V39.875C158.728 40.3485 158.797 40.7036 158.934 40.9403C159.076 41.1723 159.256 41.3286 159.474 41.4091C159.696 41.4848 159.931 41.5227 160.177 41.5227C160.362 41.5227 160.513 41.5133 160.632 41.4943C160.75 41.4706 160.845 41.4517 160.916 41.4375L161.257 42.9432C161.143 42.9858 160.984 43.0284 160.781 43.071C160.577 43.1184 160.319 43.142 160.007 43.142C159.533 43.142 159.069 43.0402 158.615 42.8366C158.165 42.633 157.791 42.3229 157.492 41.9062C157.199 41.4896 157.052 40.964 157.052 40.3295V29.4773ZM167.894 43.2273C166.909 43.2273 166.045 42.9929 165.301 42.5241C164.563 42.0554 163.985 41.3996 163.568 40.5568C163.156 39.714 162.95 38.7292 162.95 37.6023C162.95 36.4659 163.156 35.474 163.568 34.6264C163.985 33.7789 164.563 33.1207 165.301 32.652C166.045 32.1832 166.909 31.9489 167.894 31.9489C168.878 31.9489 169.74 32.1832 170.479 32.652C171.222 33.1207 171.8 33.7789 172.212 34.6264C172.628 35.474 172.837 36.4659 172.837 37.6023C172.837 38.7292 172.628 39.714 172.212 40.5568C171.8 41.3996 171.222 42.0554 170.479 42.5241C169.74 42.9929 168.878 43.2273 167.894 43.2273ZM167.894 41.7216C168.642 41.7216 169.257 41.5298 169.74 41.1463C170.223 40.7628 170.581 40.2585 170.813 39.6335C171.045 39.0085 171.161 38.3314 171.161 37.6023C171.161 36.8731 171.045 36.1937 170.813 35.5639C170.581 34.9342 170.223 34.4252 169.74 34.0369C169.257 33.6487 168.642 33.4545 167.894 33.4545C167.146 33.4545 166.53 33.6487 166.047 34.0369C165.564 34.4252 165.207 34.9342 164.975 35.5639C164.743 36.1937 164.627 36.8731 164.627 37.6023C164.627 38.3314 164.743 39.0085 164.975 39.6335C165.207 40.2585 165.564 40.7628 166.047 41.1463C166.53 41.5298 167.146 41.7216 167.894 41.7216ZM183.492 43L180.168 32.0909H181.93L184.287 40.4432H184.401L186.731 32.0909H188.52L190.822 40.4148H190.935L193.293 32.0909H195.055L191.731 43H190.083L187.697 34.6193H187.526L185.14 43H183.492ZM197.27 43V32.0909H198.947V43H197.27ZM198.123 30.2727C197.796 30.2727 197.514 30.1615 197.278 29.9389C197.046 29.7164 196.93 29.4489 196.93 29.1364C196.93 28.8239 197.046 28.5563 197.278 28.3338C197.514 28.1113 197.796 28 198.123 28C198.449 28 198.729 28.1113 198.961 28.3338C199.198 28.5563 199.316 28.8239 199.316 29.1364C199.316 29.4489 199.198 29.7164 198.961 29.9389C198.729 30.1615 198.449 30.2727 198.123 30.2727ZM206.761 32.0909V33.5114H201.107V32.0909H206.761ZM202.755 29.4773H204.431V39.875C204.431 40.3485 204.5 40.7036 204.637 40.9403C204.779 41.1723 204.959 41.3286 205.177 41.4091C205.4 41.4848 205.634 41.5227 205.88 41.5227C206.065 41.5227 206.216 41.5133 206.335 41.4943C206.453 41.4706 206.548 41.4517 206.619 41.4375L206.96 42.9432C206.846 42.9858 206.687 43.0284 206.484 43.071C206.28 43.1184 206.022 43.142 205.71 43.142C205.236 43.142 204.772 43.0402 204.318 42.8366C203.868 42.633 203.494 42.3229 203.195 41.9062C202.902 41.4896 202.755 40.964 202.755 40.3295V29.4773ZM211.193 36.4375V43H209.517V28.4545H211.193V33.7955H211.335C211.59 33.232 211.974 32.7846 212.485 32.4531C213.001 32.117 213.688 31.9489 214.545 31.9489C215.288 31.9489 215.939 32.098 216.498 32.3963C217.057 32.6899 217.49 33.142 217.798 33.7528C218.11 34.3589 218.267 35.1307 218.267 36.0682V43H216.59V36.1818C216.59 35.3153 216.365 34.6454 215.916 34.1719C215.471 33.6937 214.853 33.4545 214.062 33.4545C213.513 33.4545 213.02 33.5705 212.585 33.8026C212.154 34.0346 211.813 34.3731 211.562 34.8182C211.316 35.2633 211.193 35.803 211.193 36.4375Z" fill="white"/>
<path d="M238.89 33H237.128C237.024 32.4934 236.842 32.0483 236.581 31.6648C236.326 31.2812 236.013 30.9593 235.644 30.6989C235.279 30.4337 234.875 30.2348 234.43 30.1023C233.984 29.9697 233.52 29.9034 233.037 29.9034C232.157 29.9034 231.359 30.1259 230.644 30.571C229.934 31.0161 229.368 31.6719 228.947 32.5384C228.53 33.4048 228.322 34.4678 228.322 35.7273C228.322 36.9867 228.53 38.0497 228.947 38.9162C229.368 39.7827 229.934 40.4384 230.644 40.8835C231.359 41.3286 232.157 41.5511 233.037 41.5511C233.52 41.5511 233.984 41.4848 234.43 41.3523C234.875 41.2197 235.279 41.0232 235.644 40.7628C236.013 40.4976 236.326 40.1733 236.581 39.7898C236.842 39.4015 237.024 38.9564 237.128 38.4545H238.89C238.757 39.1979 238.516 39.8632 238.165 40.4503C237.815 41.0374 237.379 41.5369 236.858 41.9489C236.338 42.3561 235.753 42.6662 235.104 42.8793C234.46 43.0923 233.771 43.1989 233.037 43.1989C231.797 43.1989 230.694 42.8958 229.728 42.2898C228.762 41.6837 228.002 40.822 227.448 39.7045C226.894 38.5871 226.617 37.2614 226.617 35.7273C226.617 34.1932 226.894 32.8674 227.448 31.75C228.002 30.6326 228.762 29.7708 229.728 29.1648C230.694 28.5587 231.797 28.2557 233.037 28.2557C233.771 28.2557 234.46 28.3622 235.104 28.5753C235.753 28.7884 236.338 29.1009 236.858 29.5128C237.379 29.92 237.815 30.4171 238.165 31.0043C238.516 31.5866 238.757 32.2519 238.89 33ZM244.719 43.2557C244.028 43.2557 243.4 43.1255 242.837 42.8651C242.273 42.5999 241.826 42.2188 241.494 41.7216C241.163 41.2197 240.997 40.6136 240.997 39.9034C240.997 39.2784 241.12 38.7718 241.367 38.3835C241.613 37.9905 241.942 37.6828 242.354 37.4602C242.766 37.2377 243.22 37.072 243.718 36.9631C244.219 36.8494 244.724 36.7595 245.23 36.6932C245.893 36.608 246.431 36.544 246.843 36.5014C247.259 36.4541 247.562 36.3759 247.752 36.267C247.946 36.1581 248.043 35.9687 248.043 35.6989V35.642C248.043 34.9413 247.851 34.3968 247.468 34.0085C247.089 33.6203 246.513 33.4261 245.742 33.4261C244.941 33.4261 244.314 33.6013 243.86 33.9517C243.405 34.3021 243.085 34.6761 242.901 35.0739L241.31 34.5057C241.594 33.8428 241.973 33.3267 242.446 32.9574C242.924 32.5833 243.445 32.3229 244.009 32.1761C244.577 32.0246 245.136 31.9489 245.685 31.9489C246.035 31.9489 246.438 31.9915 246.892 32.0767C247.352 32.1572 247.794 32.3253 248.22 32.581C248.651 32.8366 249.009 33.2225 249.293 33.7386C249.577 34.2547 249.719 34.946 249.719 35.8125V43H248.043V41.5227H247.958C247.844 41.7595 247.655 42.0128 247.389 42.2827C247.124 42.5526 246.771 42.7822 246.331 42.9716C245.891 43.161 245.353 43.2557 244.719 43.2557ZM244.975 41.75C245.637 41.75 246.196 41.6198 246.651 41.3594C247.11 41.099 247.456 40.7628 247.688 40.3509C247.924 39.9389 248.043 39.5057 248.043 39.0511V37.517C247.972 37.6023 247.816 37.6804 247.574 37.7514C247.337 37.8177 247.063 37.8769 246.75 37.929C246.442 37.9763 246.142 38.0189 245.848 38.0568C245.559 38.09 245.325 38.1184 245.145 38.142C244.709 38.1989 244.302 38.2912 243.923 38.419C243.549 38.5421 243.246 38.7292 243.014 38.9801C242.787 39.2263 242.673 39.5625 242.673 39.9886C242.673 40.571 242.889 41.0114 243.32 41.3097C243.755 41.6032 244.307 41.75 244.975 41.75ZM252.778 43V32.0909H254.398V33.7955H254.54C254.767 33.2131 255.134 32.7609 255.64 32.4389C256.147 32.1122 256.756 31.9489 257.466 31.9489C258.185 31.9489 258.784 32.1122 259.263 32.4389C259.746 32.7609 260.122 33.2131 260.392 33.7955H260.506C260.785 33.232 261.204 32.7846 261.763 32.4531C262.321 32.117 262.991 31.9489 263.773 31.9489C264.748 31.9489 265.546 32.2543 266.166 32.8651C266.786 33.4711 267.096 34.4157 267.096 35.6989V43H265.42V35.6989C265.42 34.8939 265.2 34.3187 264.76 33.973C264.319 33.6274 263.801 33.4545 263.204 33.4545C262.437 33.4545 261.843 33.6866 261.422 34.1506C261 34.6098 260.79 35.1922 260.79 35.8977V43H259.085V35.5284C259.085 34.9081 258.884 34.4086 258.481 34.0298C258.079 33.6463 257.56 33.4545 256.926 33.4545C256.49 33.4545 256.083 33.5705 255.704 33.8026C255.33 34.0346 255.027 34.3565 254.795 34.7685C254.568 35.1757 254.454 35.6468 254.454 36.1818V43H252.778ZM274.735 43.2273C273.684 43.2273 272.777 42.9953 272.015 42.5312C271.257 42.0625 270.672 41.4091 270.26 40.571C269.853 39.7282 269.65 38.7481 269.65 37.6307C269.65 36.5133 269.853 35.5284 270.26 34.6761C270.672 33.8191 271.245 33.1515 271.979 32.6733C272.718 32.1903 273.58 31.9489 274.564 31.9489C275.133 31.9489 275.694 32.0436 276.248 32.233C276.802 32.4223 277.306 32.7301 277.76 33.1562C278.215 33.5777 278.577 34.1364 278.847 34.8324C279.117 35.5284 279.252 36.3854 279.252 37.4034V38.1136H270.843V36.6648H277.547C277.547 36.0492 277.424 35.5 277.178 35.017C276.937 34.5341 276.591 34.1529 276.141 33.8736C275.696 33.5942 275.171 33.4545 274.564 33.4545C273.897 33.4545 273.319 33.6203 272.831 33.9517C272.349 34.2784 271.977 34.7045 271.716 35.2301C271.456 35.7557 271.326 36.3191 271.326 36.9205V37.8864C271.326 38.7102 271.468 39.4086 271.752 39.9815C272.041 40.5497 272.441 40.983 272.952 41.2812C273.464 41.5748 274.058 41.7216 274.735 41.7216C275.175 41.7216 275.573 41.66 275.928 41.5369C276.288 41.4091 276.598 41.2197 276.858 40.9688C277.119 40.7131 277.32 40.3958 277.462 40.017L279.081 40.4716C278.911 41.0208 278.625 41.5038 278.222 41.9205C277.82 42.3324 277.323 42.6544 276.731 42.8864C276.139 43.1136 275.474 43.2273 274.735 43.2273ZM281.802 43V32.0909H283.421V33.7386H283.535C283.733 33.1989 284.093 32.7609 284.614 32.4247C285.135 32.0885 285.722 31.9205 286.376 31.9205C286.499 31.9205 286.653 31.9228 286.837 31.9276C287.022 31.9323 287.162 31.9394 287.256 31.9489V33.6534C287.199 33.6392 287.069 33.6179 286.866 33.5895C286.667 33.5563 286.456 33.5398 286.233 33.5398C285.703 33.5398 285.23 33.651 284.813 33.8736C284.401 34.0914 284.074 34.3944 283.833 34.7827C283.596 35.1662 283.478 35.6042 283.478 36.0966V43H281.802ZM292.453 43.2557C291.762 43.2557 291.135 43.1255 290.571 42.8651C290.008 42.5999 289.56 42.2188 289.229 41.7216C288.897 41.2197 288.732 40.6136 288.732 39.9034C288.732 39.2784 288.855 38.7718 289.101 38.3835C289.347 37.9905 289.676 37.6828 290.088 37.4602C290.5 37.2377 290.955 37.072 291.452 36.9631C291.954 36.8494 292.458 36.7595 292.965 36.6932C293.628 36.608 294.165 36.544 294.577 36.5014C294.994 36.4541 295.297 36.3759 295.486 36.267C295.68 36.1581 295.777 35.9687 295.777 35.6989V35.642C295.777 34.9413 295.585 34.3968 295.202 34.0085C294.823 33.6203 294.248 33.4261 293.476 33.4261C292.676 33.4261 292.048 33.6013 291.594 33.9517C291.139 34.3021 290.82 34.6761 290.635 35.0739L289.044 34.5057C289.328 33.8428 289.707 33.3267 290.181 32.9574C290.659 32.5833 291.18 32.3229 291.743 32.1761C292.311 32.0246 292.87 31.9489 293.419 31.9489C293.77 31.9489 294.172 31.9915 294.627 32.0767C295.086 32.1572 295.529 32.3253 295.955 32.581C296.386 32.8366 296.743 33.2225 297.027 33.7386C297.311 34.2547 297.453 34.946 297.453 35.8125V43H295.777V41.5227H295.692C295.578 41.7595 295.389 42.0128 295.124 42.2827C294.859 42.5526 294.506 42.7822 294.066 42.9716C293.625 43.161 293.088 43.2557 292.453 43.2557ZM292.709 41.75C293.372 41.75 293.931 41.6198 294.385 41.3594C294.844 41.099 295.19 40.7628 295.422 40.3509C295.659 39.9389 295.777 39.5057 295.777 39.0511V37.517C295.706 37.6023 295.55 37.6804 295.308 37.7514C295.072 37.8177 294.797 37.8769 294.485 37.929C294.177 37.9763 293.876 38.0189 293.583 38.0568C293.294 38.09 293.059 38.1184 292.879 38.142C292.444 38.1989 292.037 38.2912 291.658 38.419C291.284 38.5421 290.981 38.7292 290.749 38.9801C290.521 39.2263 290.408 39.5625 290.408 39.9886C290.408 40.571 290.623 41.0114 291.054 41.3097C291.49 41.6032 292.041 41.75 292.709 41.75Z" fill="#31FFD7"/>
</svg>
