<svg width="84" height="84" viewBox="0 0 84 84" fill="none" xmlns="http://www.w3.org/2000/svg">
<path d="M22.9425 52.5131C15.3038 64.3781 16.8 70.8619 16.8 70.8619C16.8 70.8619 21.42 69.8644 27.405 62.5669C30.45 71.4919 35.5688 76.5581 38.85 79.0519C40.7138 80.4694 43.2863 80.4694 45.15 79.0519C48.4575 76.5844 53.5501 71.5181 56.6213 62.5931C62.5801 69.8644 67.2001 70.8619 67.2001 70.8619C67.2001 70.8619 68.6963 64.3781 61.0576 52.5131C59.9551 50.7806 56.4376 45.9769 47.4863 45.9769H36.5138C27.5625 45.9795 24.045 50.7832 22.9425 52.5131Z" fill="#31FFD7"/>
<path d="M17.0625 19.7426V35.4926C17.0625 41.2939 21.7612 45.9926 27.5625 45.9926H56.4375C62.2388 45.9926 66.9375 41.2939 66.9375 35.4926V19.7426C66.9375 13.9414 62.2388 9.24262 56.4375 9.24262H27.5625C21.7612 9.24262 17.0625 13.9414 17.0625 19.7426Z" fill="white"/>
<path d="M27.5625 13.1801H56.4375C62.2388 13.1801 66.9375 17.8789 66.9375 23.6801V35.4926C66.9375 41.2939 62.2388 45.9926 56.4375 45.9926H27.5625C21.7612 45.9926 17.0625 41.2939 17.0625 35.4926V23.6801C17.0625 17.8789 21.7612 13.1801 27.5625 13.1801Z" fill="#31FFD7"/>
<path d="M47.4864 45.9795C51.6916 45.9795 54.6605 47.0505 56.7815 48.3525C55.5616 49.6599 54.0861 50.7026 52.4465 51.4161C50.8069 52.1295 49.0382 52.4985 47.2501 52.5H36.7501C34.962 52.4985 33.1933 52.1295 31.5537 51.4161C29.9141 50.7026 28.4386 49.6599 27.2187 48.3525C29.3397 47.0479 32.3086 45.9795 36.5139 45.9795H47.4864Z" fill="#27E2C2"/>
<path d="M24.9375 24.99V35.49C24.9375 36.8824 25.4906 38.2177 26.4752 39.2023C27.4598 40.1869 28.7951 40.74 30.1875 40.74H53.8125C55.2049 40.74 56.5402 40.1869 57.5248 39.2023C58.5094 38.2177 59.0625 36.8824 59.0625 35.49V24.99C59.0625 22.1025 56.7 19.74 53.8125 19.74H30.1875C27.3 19.74 24.9375 22.1025 24.9375 24.99Z" fill="#455A64"/>
<path d="M51.1875 32.8676C51.5356 32.8676 51.8694 32.7293 52.1156 32.4832C52.3617 32.2371 52.5 31.9032 52.5 31.5551V30.2426C52.5 29.8945 52.3617 29.5607 52.1156 29.3145C51.8694 29.0684 51.5356 28.9301 51.1875 28.9301C50.8394 28.9301 50.5056 29.0684 50.2594 29.3145C50.0133 29.5607 49.875 29.8945 49.875 30.2426V31.5551C49.875 31.9032 50.0133 32.2371 50.2594 32.4832C50.5056 32.7293 50.8394 32.8676 51.1875 32.8676ZM32.8125 32.8676C33.1606 32.8676 33.4944 32.7293 33.7406 32.4832C33.9867 32.2371 34.125 31.9032 34.125 31.5551V30.2426C34.125 29.8945 33.9867 29.5607 33.7406 29.3145C33.4944 29.0684 33.1606 28.9301 32.8125 28.9301C32.4644 28.9301 32.1306 29.0684 31.8844 29.3145C31.6383 29.5607 31.5 29.8945 31.5 30.2426V31.5551C31.5 31.9032 31.6383 32.2371 31.8844 32.4832C32.1306 32.7293 32.4644 32.8676 32.8125 32.8676ZM44.625 32.8676H39.375C38.6505 32.8676 38.0415 33.4714 38.2778 34.1565C38.5462 34.9299 39.0489 35.6004 39.716 36.075C40.383 36.5496 41.1814 36.8046 42 36.8046C42.8186 36.8046 43.617 36.5496 44.284 36.075C44.9511 35.6004 45.4538 34.9299 45.7223 34.1565C45.9585 33.4687 45.3495 32.8676 44.625 32.8676Z" fill="white"/>
<path d="M27.5626 47.3051H56.4376C59.5694 47.3017 62.5719 46.056 64.7864 43.8415C67.0009 41.627 68.2466 38.6244 68.2501 35.4926V19.7426C68.2501 13.23 62.9502 7.93012 56.4376 7.93012C56.0895 7.93012 55.7556 8.0684 55.5095 8.31455C55.2633 8.56069 55.1251 8.89453 55.1251 9.24262C55.1251 9.59072 55.2633 9.92456 55.5095 10.1707C55.7556 10.4168 56.0895 10.5551 56.4376 10.5551C61.5038 10.5551 65.6251 14.6764 65.6251 19.7426V35.4926C65.6251 40.5589 61.5038 44.6801 56.4376 44.6801H27.5626C22.4963 44.6801 18.3751 40.5589 18.3751 35.4926V19.7426C18.3751 14.6764 22.4963 10.5551 27.5626 10.5551H32.8126C33.1606 10.5551 33.4945 10.4168 33.7406 10.1707C33.9868 9.92456 34.1251 9.59072 34.1251 9.24262C34.1251 8.89453 33.9868 8.56069 33.7406 8.31455C33.4945 8.0684 33.1606 7.93012 32.8126 7.93012H27.5626C21.0499 7.93012 15.7501 13.23 15.7501 19.7426V35.4926C15.7501 42.0053 21.0499 47.3051 27.5626 47.3051ZM67.2027 72.177C67.4995 72.1768 67.7876 72.076 68.0198 71.891C68.2519 71.7061 68.4146 71.4478 68.4811 71.1585C68.5467 70.8724 70.0114 63.9949 62.1627 51.8044C61.5012 50.7623 60.7426 49.8461 59.8527 49.0114C59.3224 48.5205 58.4903 48.5441 57.9968 49.0718C57.5033 49.5994 57.5296 50.4315 58.0572 50.9276C58.7837 51.6062 59.4198 52.3755 59.9498 53.2166C65.0134 61.0838 65.9086 66.4703 65.9926 68.9771C64.8166 68.3918 63.0211 67.2814 60.8659 65.2496C60.7404 65.1314 60.5929 65.039 60.4317 64.9778C60.2706 64.9166 60.0989 64.8877 59.9266 64.8928C59.7542 64.8979 59.5846 64.937 59.4273 65.0076C59.2701 65.0783 59.1283 65.1793 59.0101 65.3048C58.8918 65.4302 58.7994 65.5778 58.7382 65.7389C58.677 65.9001 58.6481 66.0718 58.6532 66.2441C58.6584 66.4164 58.6974 66.5861 58.7681 66.7433C58.8387 66.9006 58.9397 67.0424 59.0652 67.1606C63.5382 71.3764 66.7853 72.1166 66.9244 72.1455C67.0157 72.1665 67.109 72.1771 67.2027 72.177ZM16.7974 72.177C16.891 72.1777 16.9843 72.168 17.0757 72.1481C17.2069 72.1193 20.3359 71.4079 24.6855 67.3916C24.9414 67.1553 25.0929 66.827 25.1067 66.4789C25.1204 66.1309 24.9954 65.7916 24.759 65.5358C24.5227 65.2799 24.1944 65.1284 23.8463 65.1146C23.4983 65.1009 23.159 65.2259 22.9032 65.4623C20.8478 67.3601 19.1363 68.4128 18.0023 68.9771C18.0863 66.4781 18.9788 61.0916 24.0424 53.2245C24.5765 52.3772 25.218 51.6025 25.9508 50.9198C26.2053 50.682 26.3548 50.3529 26.3667 50.0049C26.3785 49.6568 26.2516 49.3183 26.0138 49.0639C25.7761 48.8094 25.447 48.6598 25.0989 48.648C24.7509 48.6362 24.4124 48.7631 24.1579 49.0009C23.2628 49.8356 22.5016 50.7544 21.8322 51.8096C13.986 63.9949 15.4508 70.8698 15.5164 71.1585C15.5843 71.4476 15.7477 71.7053 15.9801 71.8902C16.2125 72.075 16.5005 72.176 16.7974 72.177Z" fill="#455A64"/>
<path d="M42.0105 81.4144C43.4251 81.417 44.8024 80.9601 45.9349 80.1124C49.5836 77.3666 56.1356 70.9774 59.0231 59.0179C59.0635 58.8503 59.0704 58.6765 59.0435 58.5063C59.0167 58.3361 58.9566 58.1728 58.8666 58.0258C58.7767 57.8788 58.6587 57.751 58.5193 57.6496C58.38 57.5483 58.222 57.4753 58.0545 57.435C57.887 57.3947 57.7131 57.3877 57.5429 57.4146C57.3727 57.4414 57.2094 57.5015 57.0625 57.5915C56.9155 57.6814 56.7876 57.7994 56.6863 57.9388C56.5849 58.0781 56.512 58.2361 56.4716 58.4036C53.7757 69.5651 47.7225 75.4819 44.3546 78.015C43.6777 78.5301 42.8501 78.8082 41.9995 78.8063C41.1489 78.8044 40.3226 78.5227 39.648 78.0045C36.2828 75.4556 30.2347 69.5231 27.5284 58.4036C27.4877 58.2361 27.4144 58.0782 27.3127 57.939C27.211 57.7998 27.0829 57.682 26.9357 57.5923C26.7885 57.5026 26.625 57.4427 26.4547 57.4162C26.2843 57.3897 26.1104 57.3969 25.9429 57.4376C25.7753 57.4783 25.6175 57.5516 25.4782 57.6533C25.339 57.755 25.2212 57.8831 25.1315 58.0303C25.0418 58.1775 24.982 58.341 24.9554 58.5113C24.9289 58.6817 24.9362 58.8556 24.9769 59.0231C27.8749 70.9327 34.419 77.3377 38.0625 80.094C39.1991 80.9533 40.5856 81.4171 42.0105 81.4144ZM51.1875 10.5551C51.5356 10.5551 51.8694 10.4168 52.1156 10.1707C52.3617 9.92456 52.5 9.59072 52.5 9.24262V3.99262C52.5 3.64453 52.3617 3.31069 52.1156 3.06454C51.8694 2.8184 51.5356 2.68012 51.1875 2.68012C50.8394 2.68012 50.5056 2.8184 50.2594 3.06454C50.0133 3.31069 49.875 3.64453 49.875 3.99262V9.24262C49.875 9.59072 50.0133 9.92456 50.2594 10.1707C50.5056 10.4168 50.8394 10.5551 51.1875 10.5551ZM32.8125 10.5551C33.1606 10.5551 33.4944 10.4168 33.7406 10.1707C33.9867 9.92456 34.125 9.59072 34.125 9.24262V3.99262C34.125 3.64453 33.9867 3.31069 33.7406 3.06454C33.4944 2.8184 33.1606 2.68012 32.8125 2.68012C32.4644 2.68012 32.1306 2.8184 31.8844 3.06454C31.6383 3.31069 31.5 3.64453 31.5 3.99262V9.24262C31.5 9.59072 31.6383 9.92456 31.8844 10.1707C32.1306 10.4168 32.4644 10.5551 32.8125 10.5551ZM30.1875 42.0525H53.8125C55.5523 42.0504 57.2203 41.3583 58.4506 40.1281C59.6808 38.8978 60.3729 37.2298 60.375 35.49V24.99C60.375 21.3727 57.4298 18.4275 53.8125 18.4275H30.1875C26.5702 18.4275 23.625 21.3727 23.625 24.99V35.49C23.625 39.1072 26.5702 42.0525 30.1875 42.0525ZM53.8125 21.0525C55.9834 21.0525 57.75 22.8191 57.75 24.99V35.49C57.75 37.6609 55.9834 39.4275 53.8125 39.4275H30.1875C28.0166 39.4275 26.25 37.6609 26.25 35.49V24.99C26.25 22.8191 28.0166 21.0525 30.1875 21.0525H53.8125Z" fill="#455A64"/>
<path d="M38.0625 10.5551H51.1875C51.5356 10.5551 51.8694 10.4168 52.1156 10.1707C52.3617 9.92456 52.5 9.59072 52.5 9.24262C52.5 8.89453 52.3617 8.56069 52.1156 8.31454C51.8694 8.0684 51.5356 7.93012 51.1875 7.93012H38.0625C37.7144 7.93012 37.3806 8.0684 37.1344 8.31454C36.8883 8.56069 36.75 8.89453 36.75 9.24262C36.75 9.59072 36.8883 9.92456 37.1344 10.1707C37.3806 10.4168 37.7144 10.5551 38.0625 10.5551Z" fill="#455A64"/>
</svg>
