<svg width="80" height="80" viewBox="0 0 80 80" fill="none" xmlns="http://www.w3.org/2000/svg">
<g clip-path="url(#clip0_20_605)">
<path d="M75.3908 58.652C78.3233 53.0994 79.9898 46.7748 79.9998 40.0611C80.0328 18.0208 62.0505 0.00562632 40.0103 1.32415e-06C17.9108 -0.00562368 -0.00562368 17.9108 1.32415e-06 40.0103C0.00562632 62.0505 18.0208 80.0328 40.0609 79.9998C46.7748 79.9898 53.0994 78.3233 58.6519 75.3908L74.6556 77.5119C76.3158 77.7319 77.7319 76.3158 77.5119 74.6556L75.3908 58.652Z" fill="#31FFD7"/>
<path d="M77.5125 74.6563C77.7328 76.3156 76.3156 77.7328 74.6562 77.5125L58.6516 75.3906C53.1 78.3234 46.775 79.9906 40.0609 80C20.2156 80.0297 3.63281 65.4531 0.524994 46.4594C6.49062 59.3359 19.5312 68.2672 34.6578 68.2672C55.4234 68.2672 72.2578 51.4328 72.2578 30.6672C72.2578 22.7438 69.8078 15.3922 65.6234 9.33125C74.4156 16.6938 80.0187 27.7484 80 40.0609C79.9906 46.775 78.3234 53.1 75.3906 58.6516L77.5125 74.6563Z" fill="#27E2C2"/>
<path d="M74.6562 77.5125L63.1608 75.9884C67.4764 74.6947 74.3065 65.8859 75.3908 58.652L77.5125 74.6563C77.7328 76.3156 76.3156 77.7328 74.6562 77.5125Z" fill="#1FC9B1"/>
<path d="M28.11 46.0075C23.745 52.7875 24.6 56.4925 24.6 56.4925C24.6 56.4925 27.24 55.9225 30.66 51.7525C32.4 56.8525 35.325 59.7475 37.2 61.1725C38.265 61.9825 39.735 61.9825 40.8 61.1725C42.69 59.7625 45.6 56.8675 47.355 51.7675C50.76 55.9225 53.4 56.4925 53.4 56.4925C53.4 56.4925 54.255 52.7875 49.89 46.0075C49.26 45.0175 47.25 42.2725 42.135 42.2725H35.865C30.75 42.274 28.74 45.019 28.11 46.0075Z" fill="#31FFD7"/>
<path d="M24.75 27.2815V36.2815C24.75 39.5965 27.435 42.2815 30.75 42.2815H47.25C50.565 42.2815 53.25 39.5965 53.25 36.2815V27.2815C53.25 23.9665 50.565 21.2815 47.25 21.2815H30.75C27.435 21.2815 24.75 23.9665 24.75 27.2815Z" fill="white"/>
<path d="M30.75 23.5315H47.25C50.565 23.5315 53.25 26.2165 53.25 29.5315V36.2815C53.25 39.5965 50.565 42.2815 47.25 42.2815H30.75C27.435 42.2815 24.75 39.5965 24.75 36.2815V29.5315C24.75 26.2165 27.435 23.5315 30.75 23.5315Z" fill="#31FFD7"/>
<path d="M42.135 42.274C44.538 42.274 46.2345 42.886 47.4465 43.63C46.7494 44.377 45.9063 44.9729 44.9693 45.3806C44.0324 45.7883 43.0217 45.9991 42 46H36C34.9782 45.9991 33.9675 45.7883 33.0306 45.3806C32.0937 44.9729 31.2505 44.377 30.5535 43.63C31.7655 42.8845 33.462 42.274 35.865 42.274H42.135Z" fill="#27E2C2"/>
<path d="M29.25 30.28V36.28C29.25 37.0756 29.5661 37.8387 30.1287 38.4013C30.6913 38.9639 31.4544 39.28 32.25 39.28H45.75C46.5456 39.28 47.3087 38.9639 47.8713 38.4013C48.4339 37.8387 48.75 37.0756 48.75 36.28V30.28C48.75 28.63 47.4 27.28 45.75 27.28H32.25C30.6 27.28 29.25 28.63 29.25 30.28Z" fill="#455A64"/>
<path d="M44.25 34.7815C44.4489 34.7815 44.6397 34.7025 44.7803 34.5618C44.921 34.4212 45 34.2304 45 34.0315V33.2815C45 33.0826 44.921 32.8918 44.7803 32.7512C44.6397 32.6105 44.4489 32.5315 44.25 32.5315C44.0511 32.5315 43.8603 32.6105 43.7197 32.7512C43.579 32.8918 43.5 33.0826 43.5 33.2815V34.0315C43.5 34.2304 43.579 34.4212 43.7197 34.5618C43.8603 34.7025 44.0511 34.7815 44.25 34.7815ZM33.75 34.7815C33.9489 34.7815 34.1397 34.7025 34.2803 34.5618C34.421 34.4212 34.5 34.2304 34.5 34.0315V33.2815C34.5 33.0826 34.421 32.8918 34.2803 32.7512C34.1397 32.6105 33.9489 32.5315 33.75 32.5315C33.5511 32.5315 33.3603 32.6105 33.2197 32.7512C33.079 32.8918 33 33.0826 33 33.2815V34.0315C33 34.2304 33.079 34.4212 33.2197 34.5618C33.3603 34.7025 33.5511 34.7815 33.75 34.7815ZM40.5 34.7815H37.5C37.086 34.7815 36.738 35.1265 36.873 35.518C37.0264 35.9599 37.3137 36.3431 37.6948 36.6143C38.076 36.8855 38.5322 37.0312 39 37.0312C39.4678 37.0312 39.924 36.8855 40.3052 36.6143C40.6863 36.3431 40.9736 35.9599 41.127 35.518C41.262 35.125 40.914 34.7815 40.5 34.7815Z" fill="white"/>
<path d="M30.75 43.0315H47.25C49.0396 43.0295 50.7553 42.3177 52.0208 41.0523C53.2862 39.7868 53.998 38.0711 54 36.2815V27.2815C54 23.56 50.9715 20.5315 47.25 20.5315C47.0511 20.5315 46.8603 20.6105 46.7196 20.7512C46.579 20.8918 46.5 21.0826 46.5 21.2815C46.5 21.4804 46.579 21.6712 46.7196 21.8118C46.8603 21.9525 47.0511 22.0315 47.25 22.0315C50.145 22.0315 52.5 24.3865 52.5 27.2815V36.2815C52.5 39.1765 50.145 41.5315 47.25 41.5315H30.75C27.855 41.5315 25.5 39.1765 25.5 36.2815V27.2815C25.5 24.3865 27.855 22.0315 30.75 22.0315H33.75C33.9489 22.0315 34.1397 21.9525 34.2803 21.8118C34.421 21.6712 34.5 21.4804 34.5 21.2815C34.5 21.0826 34.421 20.8918 34.2803 20.7512C34.1397 20.6105 33.9489 20.5315 33.75 20.5315H30.75C27.0285 20.5315 24 23.56 24 27.2815V36.2815C24 40.003 27.0285 43.0315 30.75 43.0315ZM53.4015 57.244C53.5711 57.2439 53.7357 57.1863 53.8684 57.0806C54.0011 56.9749 54.094 56.8273 54.132 56.662C54.1695 56.4985 55.0065 52.5685 50.5215 45.6025C50.1435 45.007 49.71 44.4835 49.2015 44.0065C48.8985 43.726 48.423 43.7395 48.141 44.041C47.859 44.3425 47.874 44.818 48.1755 45.1015C48.5906 45.4892 48.9541 45.9289 49.257 46.4095C52.1505 50.905 52.662 53.983 52.71 55.4155C52.038 55.081 51.012 54.4465 49.7805 53.2855C49.7088 53.2179 49.6245 53.1651 49.5324 53.1302C49.4403 53.0952 49.3422 53.0787 49.2437 53.0816C49.1452 53.0845 49.0483 53.1068 48.9584 53.1472C48.8686 53.1876 48.7875 53.2453 48.72 53.317C48.6524 53.3887 48.5996 53.473 48.5646 53.5651C48.5297 53.6572 48.5132 53.7553 48.5161 53.8538C48.519 53.9522 48.5413 54.0492 48.5817 54.139C48.6221 54.2289 48.6798 54.3099 48.7515 54.3775C51.3075 56.7865 53.163 57.2095 53.2425 57.226C53.2946 57.238 53.348 57.244 53.4015 57.244ZM24.5985 57.244C24.6519 57.2444 24.7052 57.2388 24.7575 57.2275C24.8325 57.211 26.6205 56.8045 29.106 54.5095C29.2522 54.3744 29.3387 54.1868 29.3466 53.9879C29.3545 53.7891 29.283 53.5952 29.148 53.449C29.0129 53.3028 28.8253 53.2162 28.6264 53.2084C28.4275 53.2005 28.2337 53.2719 28.0875 53.407C26.913 54.4915 25.935 55.093 25.287 55.4155C25.335 53.9875 25.845 50.9095 28.7385 46.414C29.0437 45.9298 29.4102 45.4871 29.829 45.097C29.9744 44.9611 30.0599 44.7731 30.0666 44.5742C30.0734 44.3753 30.0008 44.1819 29.865 44.0365C29.7291 43.8911 29.5411 43.8056 29.3422 43.7989C29.1433 43.7921 28.9499 43.8646 28.8045 44.0005C28.293 44.4775 27.858 45.0025 27.4755 45.6055C22.992 52.5685 23.829 56.497 23.8665 56.662C23.9053 56.8272 23.9986 56.9745 24.1314 57.0801C24.2643 57.1857 24.4288 57.2434 24.5985 57.244Z" fill="#455A64"/>
<path d="M39.006 62.5225C39.8144 62.524 40.6014 62.2629 41.2485 61.7785C43.3335 60.2095 47.0775 56.5585 48.7275 49.7245C48.7505 49.6288 48.7545 49.5294 48.7392 49.4322C48.7238 49.3349 48.6895 49.2416 48.6381 49.1576C48.5867 49.0736 48.5192 49.0006 48.4396 48.9426C48.36 48.8847 48.2697 48.843 48.174 48.82C48.0783 48.7969 47.9789 48.793 47.8817 48.8083C47.7844 48.8237 47.6911 48.858 47.6071 48.9094C47.5231 48.9608 47.4501 49.0283 47.3922 49.1079C47.3342 49.1875 47.2925 49.2778 47.2695 49.3735C45.729 55.7515 42.27 59.1325 40.3455 60.58C39.9587 60.8744 39.4858 61.0333 38.9997 61.0322C38.5137 61.0311 38.0415 60.8701 37.656 60.574C35.733 59.1175 32.277 55.7275 30.7305 49.3735C30.7073 49.2778 30.6654 49.1875 30.6073 49.108C30.5492 49.0284 30.476 48.9611 30.3918 48.9099C30.3077 48.8586 30.2143 48.8244 30.117 48.8092C30.0196 48.7941 29.9202 48.7983 29.8245 48.8215C29.7288 48.8447 29.6385 48.8866 29.559 48.9447C29.4794 49.0028 29.4121 49.076 29.3609 49.1602C29.3096 49.2443 29.2754 49.3377 29.2603 49.435C29.2451 49.5324 29.2493 49.6318 29.2725 49.7275C30.9285 56.533 34.668 60.193 36.75 61.768C37.3995 62.259 38.1918 62.524 39.006 62.5225ZM44.25 22.0315C44.4489 22.0315 44.6397 21.9525 44.7803 21.8118C44.921 21.6712 45 21.4804 45 21.2815V18.2815C45 18.0826 44.921 17.8918 44.7803 17.7512C44.6397 17.6105 44.4489 17.5315 44.25 17.5315C44.0511 17.5315 43.8603 17.6105 43.7197 17.7512C43.579 17.8918 43.5 18.0826 43.5 18.2815V21.2815C43.5 21.4804 43.579 21.6712 43.7197 21.8118C43.8603 21.9525 44.0511 22.0315 44.25 22.0315ZM33.75 22.0315C33.9489 22.0315 34.1397 21.9525 34.2803 21.8118C34.421 21.6712 34.5 21.4804 34.5 21.2815V18.2815C34.5 18.0826 34.421 17.8918 34.2803 17.7512C34.1397 17.6105 33.9489 17.5315 33.75 17.5315C33.5511 17.5315 33.3603 17.6105 33.2197 17.7512C33.079 17.8918 33 18.0826 33 18.2815V21.2815C33 21.4804 33.079 21.6712 33.2197 21.8118C33.3603 21.9525 33.5511 22.0315 33.75 22.0315ZM32.25 40.03H45.75C46.7442 40.0288 47.6973 39.6333 48.4003 38.9303C49.1033 38.2273 49.4988 37.2742 49.5 36.28V30.28C49.5 28.213 47.817 26.53 45.75 26.53H32.25C30.183 26.53 28.5 28.213 28.5 30.28V36.28C28.5 38.347 30.183 40.03 32.25 40.03ZM45.75 28.03C46.9905 28.03 48 29.0395 48 30.28V36.28C48 37.5205 46.9905 38.53 45.75 38.53H32.25C31.0095 38.53 30 37.5205 30 36.28V30.28C30 29.0395 31.0095 28.03 32.25 28.03H45.75Z" fill="#455A64"/>
<path d="M36.75 22.0315H44.25C44.4489 22.0315 44.6397 21.9525 44.7803 21.8118C44.921 21.6712 45 21.4804 45 21.2815C45 21.0826 44.921 20.8918 44.7803 20.7512C44.6397 20.6105 44.4489 20.5315 44.25 20.5315H36.75C36.5511 20.5315 36.3603 20.6105 36.2197 20.7512C36.079 20.8918 36 21.0826 36 21.2815C36 21.4804 36.079 21.6712 36.2197 21.8118C36.3603 21.9525 36.5511 22.0315 36.75 22.0315Z" fill="#455A64"/>
</g>
<defs>
<clipPath id="clip0_20_605">
<rect width="80" height="80" fill="white"/>
</clipPath>
</defs>
</svg>
