<svg width="104" height="52" viewBox="0 0 104 52" fill="none" xmlns="http://www.w3.org/2000/svg">
<g filter="url(#filter0_d_24_1411)">
<rect x="7" y="4.5" width="90" height="39" stroke="#27E2C2" shape-rendering="crispEdges"/>
<path d="M35.8334 24.7501V28.2501C35.8334 31.1667 34.6667 32.3334 31.7501 32.3334H28.2501C25.3334 32.3334 24.1667 31.1667 24.1667 28.2501V24.7501C24.1667 21.8334 25.3334 20.6667 28.2501 20.6667H31.7501C34.6667 20.6667 35.8334 21.8334 35.8334 24.7501Z" stroke="#31FFD7" stroke-width="1.5" stroke-linecap="round" stroke-linejoin="round"/>
<path d="M40.8334 19.7501V23.2501C40.8334 26.1667 39.6667 27.3334 36.7501 27.3334H35.8334V24.7501C35.8334 21.8334 34.6667 20.6667 31.7501 20.6667H29.1667V19.7501C29.1667 16.8334 30.3334 15.6667 33.2501 15.6667H36.7501C39.6667 15.6667 40.8334 16.8334 40.8334 19.7501Z" stroke="#31FFD7" stroke-width="1.5" stroke-linecap="round" stroke-linejoin="round"/>
<path d="M59.1259 22.7173H57.5321C57.4867 22.456 57.4029 22.2244 57.2807 22.0227C57.1586 21.8182 57.0066 21.6449 56.8248 21.5028C56.6429 21.3608 56.4355 21.2543 56.2026 21.1832C55.9725 21.1094 55.7239 21.0724 55.4569 21.0724C54.9824 21.0724 54.562 21.1918 54.1955 21.4304C53.829 21.6662 53.5421 22.0128 53.3347 22.4702C53.1273 22.9247 53.0236 23.4801 53.0236 24.1364C53.0236 24.804 53.1273 25.3665 53.3347 25.8239C53.5449 26.2784 53.8319 26.6222 54.1955 26.8551C54.562 27.0852 54.981 27.2003 55.4526 27.2003C55.714 27.2003 55.9583 27.1662 56.1855 27.098C56.4157 27.027 56.6216 26.9233 56.8034 26.7869C56.9881 26.6506 57.1429 26.483 57.2679 26.2841C57.3958 26.0852 57.4838 25.858 57.5321 25.6023L59.1259 25.6108C59.0662 26.0256 58.937 26.4148 58.7381 26.7784C58.5421 27.142 58.285 27.4631 57.9668 27.7415C57.6486 28.017 57.2765 28.233 56.8503 28.3892C56.4242 28.5426 55.9512 28.6193 55.4313 28.6193C54.6642 28.6193 53.9796 28.4418 53.3773 28.0866C52.775 27.7315 52.3006 27.2188 51.954 26.5483C51.6074 25.8778 51.4341 25.0739 51.4341 24.1364C51.4341 23.196 51.6088 22.392 51.9583 21.7244C52.3077 21.054 52.7836 20.5412 53.3858 20.1861C53.9881 19.831 54.6699 19.6534 55.4313 19.6534C55.9171 19.6534 56.3688 19.7216 56.7864 19.858C57.204 19.9943 57.5762 20.1946 57.9029 20.4588C58.2296 20.7202 58.498 21.0412 58.7083 21.4219C58.9213 21.7997 59.0605 22.2315 59.1259 22.7173ZM63.3606 28.6278C62.7214 28.6278 62.1674 28.4872 61.6987 28.206C61.2299 27.9247 60.8663 27.5312 60.6078 27.0256C60.3521 26.5199 60.2243 25.929 60.2243 25.2528C60.2243 24.5767 60.3521 23.9844 60.6078 23.4759C60.8663 22.9673 61.2299 22.5724 61.6987 22.2912C62.1674 22.0099 62.7214 21.8693 63.3606 21.8693C63.9998 21.8693 64.5538 22.0099 65.0225 22.2912C65.4913 22.5724 65.8535 22.9673 66.1092 23.4759C66.3677 23.9844 66.497 24.5767 66.497 25.2528C66.497 25.929 66.3677 26.5199 66.1092 27.0256C65.8535 27.5312 65.4913 27.9247 65.0225 28.206C64.5538 28.4872 63.9998 28.6278 63.3606 28.6278ZM63.3691 27.392C63.7157 27.392 64.0055 27.2969 64.2385 27.1065C64.4714 26.9134 64.6447 26.6548 64.7583 26.331C64.8748 26.0071 64.9331 25.6463 64.9331 25.2486C64.9331 24.848 64.8748 24.4858 64.7583 24.1619C64.6447 23.8352 64.4714 23.5753 64.2385 23.3821C64.0055 23.1889 63.7157 23.0923 63.3691 23.0923C63.014 23.0923 62.7186 23.1889 62.4828 23.3821C62.2498 23.5753 62.0751 23.8352 61.9586 24.1619C61.845 24.4858 61.7882 24.848 61.7882 25.2486C61.7882 25.6463 61.845 26.0071 61.9586 26.331C62.0751 26.6548 62.2498 26.9134 62.4828 27.1065C62.7186 27.2969 63.014 27.392 63.3691 27.392ZM67.8063 30.9545V21.9545H69.3233V23.0369H69.4128C69.4924 22.8778 69.6046 22.7088 69.7495 22.5298C69.8944 22.348 70.0904 22.1932 70.3375 22.0653C70.5847 21.9347 70.9 21.8693 71.2836 21.8693C71.7892 21.8693 72.2452 21.9986 72.6515 22.2571C73.0605 22.5128 73.3844 22.892 73.623 23.3949C73.8645 23.8949 73.9853 24.5085 73.9853 25.2358C73.9853 25.9545 73.8674 26.5653 73.6316 27.0682C73.3958 27.571 73.0748 27.9545 72.6685 28.2188C72.2623 28.483 71.802 28.6151 71.2878 28.6151C70.9128 28.6151 70.6017 28.5526 70.3546 28.4276C70.1074 28.3026 69.9086 28.152 69.758 27.9759C69.6103 27.7969 69.4952 27.6278 69.4128 27.4688H69.3489V30.9545H67.8063ZM69.3191 25.2273C69.3191 25.6506 69.3787 26.0213 69.498 26.3395C69.6202 26.6577 69.7949 26.9062 70.0222 27.0852C70.2523 27.2614 70.5307 27.3494 70.8574 27.3494C71.1983 27.3494 71.4838 27.2585 71.714 27.0767C71.9441 26.892 72.1174 26.6406 72.2338 26.3224C72.3532 26.0014 72.4128 25.6364 72.4128 25.2273C72.4128 24.821 72.3546 24.4602 72.2381 24.1449C72.1216 23.8295 71.9483 23.5824 71.7182 23.4034C71.4881 23.2244 71.2012 23.1349 70.8574 23.1349C70.5279 23.1349 70.248 23.2216 70.0179 23.3949C69.7878 23.5682 69.6131 23.8111 69.4938 24.1236C69.3773 24.4361 69.3191 24.804 69.3191 25.2273ZM76.0424 30.9545C75.8322 30.9545 75.6376 30.9375 75.4586 30.9034C75.2825 30.8722 75.1419 30.8352 75.0368 30.7926L75.3947 29.5909C75.6191 29.6563 75.8194 29.6875 75.9956 29.6847C76.1717 29.6818 76.3265 29.6264 76.46 29.5185C76.5964 29.4134 76.7115 29.2372 76.8052 28.9901L76.9373 28.6364L74.5637 21.9545H76.2001L77.7086 26.8977H77.7768L79.2896 21.9545H80.9302L78.3095 29.2926C78.1873 29.6392 78.0254 29.9361 77.8237 30.1832C77.622 30.4332 77.3748 30.6236 77.0822 30.7543C76.7924 30.8878 76.4458 30.9545 76.0424 30.9545Z" fill="#31FFD7"/>
</g>
<defs>
<filter id="filter0_d_24_1411" x="0.5" y="0" width="103" height="52" filterUnits="userSpaceOnUse" color-interpolation-filters="sRGB">
<feFlood flood-opacity="0" result="BackgroundImageFix"/>
<feColorMatrix in="SourceAlpha" type="matrix" values="0 0 0 0 0 0 0 0 0 0 0 0 0 0 0 0 0 0 127 0" result="hardAlpha"/>
<feOffset dy="2"/>
<feGaussianBlur stdDeviation="3"/>
<feComposite in2="hardAlpha" operator="out"/>
<feColorMatrix type="matrix" values="0 0 0 0 0.290196 0 0 0 0 0.752941 0 0 0 0 0.784314 0 0 0 0.68 0"/>
<feBlend mode="normal" in2="BackgroundImageFix" result="effect1_dropShadow_24_1411"/>
<feBlend mode="normal" in="SourceGraphic" in2="effect1_dropShadow_24_1411" result="shape"/>
</filter>
</defs>
</svg>
