<svg width="335" height="71" viewBox="0 0 335 71" fill="none" xmlns="http://www.w3.org/2000/svg">
<rect x="0.5" y="0.5" width="334" height="70" stroke="#31FFD7"/>
<path d="M57.58 43.01L57.56 43.03C57.29 42.44 57.12 41.77 57.05 41.03C57.12 41.76 57.31 42.42 57.58 43.01Z" fill="#31FFD7"/>
<path d="M64 34.38C65.3144 34.38 66.38 33.3144 66.38 32C66.38 30.6856 65.3144 29.62 64 29.62C62.6856 29.62 61.62 30.6856 61.62 32C61.62 33.3144 62.6856 34.38 64 34.38Z" fill="#31FFD7"/>
<path d="M71.19 26H62.81C59.17 26 57 28.17 57 31.81V40.19C57 41.28 57.19 42.23 57.56 43.03C58.42 44.93 60.26 46 62.81 46H71.19C74.83 46 77 43.83 77 40.19V37.9V31.81C77 28.17 74.83 26 71.19 26ZM75.37 36.5C74.59 35.83 73.33 35.83 72.55 36.5L68.39 40.07C67.61 40.74 66.35 40.74 65.57 40.07L65.23 39.79C64.52 39.17 63.39 39.11 62.59 39.65L58.85 42.16C58.63 41.6 58.5 40.95 58.5 40.19V31.81C58.5 28.99 59.99 27.5 62.81 27.5H71.19C74.01 27.5 75.5 28.99 75.5 31.81V36.61L75.37 36.5Z" fill="#31FFD7"/>
<path d="M100.776 33H99.0151C98.9109 32.4934 98.7286 32.0483 98.4682 31.6648C98.2125 31.2812 97.9 30.9593 97.5307 30.6989C97.1661 30.4337 96.7613 30.2348 96.3162 30.1023C95.8712 29.9697 95.4071 29.9034 94.9242 29.9034C94.0435 29.9034 93.2457 30.1259 92.5307 30.571C91.8205 31.0161 91.2547 31.6719 90.8333 32.5384C90.4166 33.4048 90.2083 34.4678 90.2083 35.7273C90.2083 36.9867 90.4166 38.0497 90.8333 38.9162C91.2547 39.7827 91.8205 40.4384 92.5307 40.8835C93.2457 41.3286 94.0435 41.5511 94.9242 41.5511C95.4071 41.5511 95.8712 41.4848 96.3162 41.3523C96.7613 41.2197 97.1661 41.0232 97.5307 40.7628C97.9 40.4976 98.2125 40.1733 98.4682 39.7898C98.7286 39.4015 98.9109 38.9564 99.0151 38.4545H100.776C100.644 39.1979 100.402 39.8632 100.052 40.4503C99.7016 41.0374 99.266 41.5369 98.7452 41.9489C98.2244 42.3561 97.6396 42.6662 96.9909 42.8793C96.347 43.0923 95.6581 43.1989 94.9242 43.1989C93.6837 43.1989 92.5804 42.8958 91.6145 42.2898C90.6486 41.6837 89.8887 40.822 89.3347 39.7045C88.7807 38.5871 88.5037 37.2614 88.5037 35.7273C88.5037 34.1932 88.7807 32.8674 89.3347 31.75C89.8887 30.6326 90.6486 29.7708 91.6145 29.1648C92.5804 28.5587 93.6837 28.2557 94.9242 28.2557C95.6581 28.2557 96.347 28.3622 96.9909 28.5753C97.6396 28.7884 98.2244 29.1009 98.7452 29.5128C99.266 29.92 99.7016 30.4171 100.052 31.0043C100.402 31.5866 100.644 32.2519 100.776 33ZM105.072 36.4375V43H103.395V28.4545H105.072V33.7955H105.214C105.469 33.232 105.853 32.7846 106.364 32.4531C106.88 32.117 107.567 31.9489 108.424 31.9489C109.167 31.9489 109.818 32.098 110.377 32.3963C110.936 32.6899 111.369 33.142 111.677 33.7528C111.989 34.3589 112.145 35.1307 112.145 36.0682V43H110.469V36.1818C110.469 35.3153 110.244 34.6454 109.795 34.1719C109.349 33.6937 108.732 33.4545 107.941 33.4545C107.392 33.4545 106.899 33.5705 106.464 33.8026C106.033 34.0346 105.692 34.3731 105.441 34.8182C105.195 35.2633 105.072 35.803 105.072 36.4375ZM119.644 43.2273C118.659 43.2273 117.795 42.9929 117.051 42.5241C116.313 42.0554 115.735 41.3996 115.318 40.5568C114.906 39.714 114.7 38.7292 114.7 37.6023C114.7 36.4659 114.906 35.474 115.318 34.6264C115.735 33.7789 116.313 33.1207 117.051 32.652C117.795 32.1832 118.659 31.9489 119.644 31.9489C120.628 31.9489 121.49 32.1832 122.229 32.652C122.972 33.1207 123.55 33.7789 123.962 34.6264C124.378 35.474 124.587 36.4659 124.587 37.6023C124.587 38.7292 124.378 39.714 123.962 40.5568C123.55 41.3996 122.972 42.0554 122.229 42.5241C121.49 42.9929 120.628 43.2273 119.644 43.2273ZM119.644 41.7216C120.392 41.7216 121.007 41.5298 121.49 41.1463C121.973 40.7628 122.331 40.2585 122.563 39.6335C122.795 39.0085 122.911 38.3314 122.911 37.6023C122.911 36.8731 122.795 36.1937 122.563 35.5639C122.331 34.9342 121.973 34.4252 121.49 34.0369C121.007 33.6487 120.392 33.4545 119.644 33.4545C118.896 33.4545 118.28 33.6487 117.797 34.0369C117.314 34.4252 116.957 34.9342 116.725 35.5639C116.493 36.1937 116.377 36.8731 116.377 37.6023C116.377 38.3314 116.493 39.0085 116.725 39.6335C116.957 40.2585 117.314 40.7628 117.797 41.1463C118.28 41.5298 118.896 41.7216 119.644 41.7216ZM131.577 43.2273C130.592 43.2273 129.728 42.9929 128.985 42.5241C128.246 42.0554 127.669 41.3996 127.252 40.5568C126.84 39.714 126.634 38.7292 126.634 37.6023C126.634 36.4659 126.84 35.474 127.252 34.6264C127.669 33.7789 128.246 33.1207 128.985 32.652C129.728 32.1832 130.592 31.9489 131.577 31.9489C132.562 31.9489 133.424 32.1832 134.162 32.652C134.906 33.1207 135.483 33.7789 135.895 34.6264C136.312 35.474 136.52 36.4659 136.52 37.6023C136.52 38.7292 136.312 39.714 135.895 40.5568C135.483 41.3996 134.906 42.0554 134.162 42.5241C133.424 42.9929 132.562 43.2273 131.577 43.2273ZM131.577 41.7216C132.325 41.7216 132.941 41.5298 133.424 41.1463C133.907 40.7628 134.264 40.2585 134.496 39.6335C134.728 39.0085 134.844 38.3314 134.844 37.6023C134.844 36.8731 134.728 36.1937 134.496 35.5639C134.264 34.9342 133.907 34.4252 133.424 34.0369C132.941 33.6487 132.325 33.4545 131.577 33.4545C130.829 33.4545 130.214 33.6487 129.731 34.0369C129.248 34.4252 128.89 34.9342 128.658 35.5639C128.426 36.1937 128.31 36.8731 128.31 37.6023C128.31 38.3314 128.426 39.0085 128.658 39.6335C128.89 40.2585 129.248 40.7628 129.731 41.1463C130.214 41.5298 130.829 41.7216 131.577 41.7216ZM146.806 34.5341L145.301 34.9602C145.206 34.7093 145.066 34.4654 144.882 34.2287C144.702 33.9872 144.455 33.7884 144.143 33.6321C143.83 33.4759 143.43 33.3977 142.943 33.3977C142.275 33.3977 141.719 33.5516 141.274 33.8594C140.833 34.1624 140.613 34.5483 140.613 35.017C140.613 35.4337 140.765 35.7628 141.068 36.0043C141.371 36.2457 141.844 36.447 142.488 36.608L144.107 37.0057C145.083 37.2424 145.81 37.6046 146.288 38.0923C146.766 38.5753 147.005 39.1979 147.005 39.9602C147.005 40.5852 146.825 41.1439 146.465 41.6364C146.11 42.1288 145.613 42.517 144.974 42.8011C144.335 43.0852 143.591 43.2273 142.744 43.2273C141.631 43.2273 140.71 42.9858 139.981 42.5028C139.252 42.0199 138.79 41.3144 138.596 40.3864L140.187 39.9886C140.338 40.5758 140.625 41.0161 141.046 41.3097C141.472 41.6032 142.029 41.75 142.715 41.75C143.497 41.75 144.117 41.5843 144.576 41.2528C145.04 40.9167 145.272 40.5142 145.272 40.0455C145.272 39.6667 145.14 39.3494 144.874 39.0938C144.609 38.8333 144.202 38.6392 143.653 38.5114L141.835 38.0852C140.836 37.8485 140.102 37.4815 139.633 36.9844C139.169 36.4825 138.937 35.8551 138.937 35.1023C138.937 34.4867 139.11 33.9422 139.455 33.4688C139.806 32.9953 140.282 32.6236 140.883 32.3537C141.489 32.0838 142.176 31.9489 142.943 31.9489C144.022 31.9489 144.87 32.1856 145.485 32.6591C146.106 33.1326 146.546 33.7576 146.806 34.5341ZM154.102 43.2273C153.051 43.2273 152.144 42.9953 151.382 42.5312C150.624 42.0625 150.04 41.4091 149.628 40.571C149.22 39.7282 149.017 38.7481 149.017 37.6307C149.017 36.5133 149.22 35.5284 149.628 34.6761C150.04 33.8191 150.613 33.1515 151.346 32.6733C152.085 32.1903 152.947 31.9489 153.932 31.9489C154.5 31.9489 155.061 32.0436 155.615 32.233C156.169 32.4223 156.673 32.7301 157.128 33.1562C157.582 33.5777 157.944 34.1364 158.214 34.8324C158.484 35.5284 158.619 36.3854 158.619 37.4034V38.1136H150.21V36.6648H156.915C156.915 36.0492 156.791 35.5 156.545 35.017C156.304 34.5341 155.958 34.1529 155.508 33.8736C155.063 33.5942 154.538 33.4545 153.932 33.4545C153.264 33.4545 152.686 33.6203 152.199 33.9517C151.716 34.2784 151.344 34.7045 151.084 35.2301C150.823 35.7557 150.693 36.3191 150.693 36.9205V37.8864C150.693 38.7102 150.835 39.4086 151.119 39.9815C151.408 40.5497 151.808 40.983 152.319 41.2812C152.831 41.5748 153.425 41.7216 154.102 41.7216C154.542 41.7216 154.94 41.66 155.295 41.5369C155.655 41.4091 155.965 41.2197 156.226 40.9688C156.486 40.7131 156.687 40.3958 156.829 40.017L158.449 40.4716C158.278 41.0208 157.992 41.5038 157.589 41.9205C157.187 42.3324 156.69 42.6544 156.098 42.8864C155.506 43.1136 154.841 43.2273 154.102 43.2273ZM171.652 32.0909V33.5114H165.771V32.0909H171.652ZM167.532 43V30.5852C167.532 29.9602 167.679 29.4394 167.973 29.0227C168.266 28.6061 168.648 28.2936 169.116 28.0852C169.585 27.8769 170.08 27.7727 170.601 27.7727C171.013 27.7727 171.349 27.8059 171.609 27.8722C171.87 27.9384 172.064 28 172.192 28.0568L171.709 29.5057C171.623 29.4773 171.505 29.4418 171.354 29.3991C171.207 29.3565 171.013 29.3352 170.771 29.3352C170.217 29.3352 169.817 29.4749 169.571 29.7543C169.329 30.0336 169.209 30.4432 169.209 30.983V43H167.532ZM174.001 43V32.0909H175.62V33.7386H175.734C175.933 33.1989 176.293 32.7609 176.813 32.4247C177.334 32.0885 177.921 31.9205 178.575 31.9205C178.698 31.9205 178.852 31.9228 179.036 31.9276C179.221 31.9323 179.361 31.9394 179.455 31.9489V33.6534C179.399 33.6392 179.268 33.6179 179.065 33.5895C178.866 33.5563 178.655 33.5398 178.433 33.5398C177.902 33.5398 177.429 33.651 177.012 33.8736C176.6 34.0914 176.274 34.3944 176.032 34.7827C175.795 35.1662 175.677 35.6042 175.677 36.0966V43H174.001ZM185.542 43.2273C184.557 43.2273 183.693 42.9929 182.95 42.5241C182.211 42.0554 181.633 41.3996 181.217 40.5568C180.805 39.714 180.599 38.7292 180.599 37.6023C180.599 36.4659 180.805 35.474 181.217 34.6264C181.633 33.7789 182.211 33.1207 182.95 32.652C183.693 32.1832 184.557 31.9489 185.542 31.9489C186.527 31.9489 187.389 32.1832 188.127 32.652C188.871 33.1207 189.448 33.7789 189.86 34.6264C190.277 35.474 190.485 36.4659 190.485 37.6023C190.485 38.7292 190.277 39.714 189.86 40.5568C189.448 41.3996 188.871 42.0554 188.127 42.5241C187.389 42.9929 186.527 43.2273 185.542 43.2273ZM185.542 41.7216C186.29 41.7216 186.906 41.5298 187.389 41.1463C187.872 40.7628 188.229 40.2585 188.461 39.6335C188.693 39.0085 188.809 38.3314 188.809 37.6023C188.809 36.8731 188.693 36.1937 188.461 35.5639C188.229 34.9342 187.872 34.4252 187.389 34.0369C186.906 33.6487 186.29 33.4545 185.542 33.4545C184.794 33.4545 184.178 33.6487 183.695 34.0369C183.213 34.4252 182.855 34.9342 182.623 35.5639C182.391 36.1937 182.275 36.8731 182.275 37.6023C182.275 38.3314 182.391 39.0085 182.623 39.6335C182.855 40.2585 183.213 40.7628 183.695 41.1463C184.178 41.5298 184.794 41.7216 185.542 41.7216ZM193.044 43V32.0909H194.663V33.7955H194.805C195.032 33.2131 195.399 32.7609 195.906 32.4389C196.413 32.1122 197.021 31.9489 197.731 31.9489C198.451 31.9489 199.05 32.1122 199.528 32.4389C200.011 32.7609 200.388 33.2131 200.657 33.7955H200.771C201.05 33.232 201.47 32.7846 202.028 32.4531C202.587 32.117 203.257 31.9489 204.038 31.9489C205.014 31.9489 205.811 32.2543 206.432 32.8651C207.052 33.4711 207.362 34.4157 207.362 35.6989V43H205.686V35.6989C205.686 34.8939 205.466 34.3187 205.025 33.973C204.585 33.6274 204.067 33.4545 203.47 33.4545C202.703 33.4545 202.109 33.6866 201.687 34.1506C201.266 34.6098 201.055 35.1922 201.055 35.8977V43H199.351V35.5284C199.351 34.9081 199.149 34.4086 198.747 34.0298C198.345 33.6463 197.826 33.4545 197.192 33.4545C196.756 33.4545 196.349 33.5705 195.97 33.8026C195.596 34.0346 195.293 34.3565 195.061 34.7685C194.834 35.1757 194.72 35.6468 194.72 36.1818V43H193.044Z" fill="white"/>
<path d="M226.222 33C226.066 32.5218 225.86 32.0933 225.604 31.7145C225.353 31.331 225.053 31.0043 224.702 30.7344C224.357 30.4645 223.964 30.2585 223.523 30.1165C223.083 29.9744 222.6 29.9034 222.074 29.9034C221.213 29.9034 220.429 30.1259 219.724 30.571C219.018 31.0161 218.457 31.6719 218.04 32.5384C217.624 33.4048 217.415 34.4678 217.415 35.7273C217.415 36.9867 217.626 38.0497 218.047 38.9162C218.469 39.7827 219.039 40.4384 219.759 40.8835C220.479 41.3286 221.288 41.5511 222.188 41.5511C223.021 41.5511 223.755 41.3736 224.39 41.0185C225.029 40.6586 225.526 40.152 225.881 39.4986C226.241 38.8404 226.421 38.0663 226.421 37.1761L226.961 37.2898H222.586V35.7273H228.126V37.2898C228.126 38.4877 227.87 39.5294 227.358 40.4148C226.852 41.3002 226.151 41.9867 225.256 42.4744C224.366 42.9574 223.343 43.1989 222.188 43.1989C220.9 43.1989 219.769 42.8958 218.793 42.2898C217.823 41.6837 217.065 40.822 216.52 39.7045C215.981 38.5871 215.711 37.2614 215.711 35.7273C215.711 34.5767 215.865 33.5421 216.172 32.6236C216.485 31.7003 216.925 30.9143 217.493 30.2656C218.062 29.617 218.734 29.1198 219.51 28.7741C220.287 28.4285 221.142 28.2557 222.074 28.2557C222.841 28.2557 223.556 28.3717 224.219 28.6037C224.887 28.831 225.481 29.1553 226.002 29.5767C226.528 29.9934 226.965 30.4929 227.316 31.0753C227.666 31.6529 227.908 32.2945 228.04 33H226.222ZM234.125 43.2557C233.434 43.2557 232.807 43.1255 232.243 42.8651C231.68 42.5999 231.232 42.2188 230.901 41.7216C230.569 41.2197 230.404 40.6136 230.404 39.9034C230.404 39.2784 230.527 38.7718 230.773 38.3835C231.019 37.9905 231.348 37.6828 231.76 37.4602C232.172 37.2377 232.627 37.072 233.124 36.9631C233.626 36.8494 234.13 36.7595 234.637 36.6932C235.299 36.608 235.837 36.544 236.249 36.5014C236.665 36.4541 236.968 36.3759 237.158 36.267C237.352 36.1581 237.449 35.9687 237.449 35.6989V35.642C237.449 34.9413 237.257 34.3968 236.874 34.0085C236.495 33.6203 235.92 33.4261 235.148 33.4261C234.348 33.4261 233.72 33.6013 233.266 33.9517C232.811 34.3021 232.492 34.6761 232.307 35.0739L230.716 34.5057C231 33.8428 231.379 33.3267 231.852 32.9574C232.331 32.5833 232.852 32.3229 233.415 32.1761C233.983 32.0246 234.542 31.9489 235.091 31.9489C235.441 31.9489 235.844 31.9915 236.298 32.0767C236.758 32.1572 237.2 32.3253 237.627 32.581C238.057 32.8366 238.415 33.2225 238.699 33.7386C238.983 34.2547 239.125 34.946 239.125 35.8125V43H237.449V41.5227H237.364C237.25 41.7595 237.061 42.0128 236.796 42.2827C236.53 42.5526 236.178 42.7822 235.737 42.9716C235.297 43.161 234.76 43.2557 234.125 43.2557ZM234.381 41.75C235.044 41.75 235.602 41.6198 236.057 41.3594C236.516 41.099 236.862 40.7628 237.094 40.3509C237.331 39.9389 237.449 39.5057 237.449 39.0511V37.517C237.378 37.6023 237.222 37.6804 236.98 37.7514C236.744 37.8177 236.469 37.8769 236.156 37.929C235.849 37.9763 235.548 38.0189 235.254 38.0568C234.966 38.09 234.731 38.1184 234.551 38.142C234.116 38.1989 233.709 38.2912 233.33 38.419C232.956 38.5421 232.653 38.7292 232.421 38.9801C232.193 39.2263 232.08 39.5625 232.08 39.9886C232.08 40.571 232.295 41.0114 232.726 41.3097C233.162 41.6032 233.713 41.75 234.381 41.75ZM243.861 28.4545V43H242.184V28.4545H243.861ZM248.607 28.4545V43H246.931V28.4545H248.607ZM256.251 43.2273C255.199 43.2273 254.293 42.9953 253.53 42.5312C252.773 42.0625 252.188 41.4091 251.776 40.571C251.369 39.7282 251.165 38.7481 251.165 37.6307C251.165 36.5133 251.369 35.5284 251.776 34.6761C252.188 33.8191 252.761 33.1515 253.495 32.6733C254.233 32.1903 255.095 31.9489 256.08 31.9489C256.648 31.9489 257.209 32.0436 257.763 32.233C258.317 32.4223 258.822 32.7301 259.276 33.1562C259.731 33.5777 260.093 34.1364 260.363 34.8324C260.633 35.5284 260.768 36.3854 260.768 37.4034V38.1136H252.358V36.6648H259.063C259.063 36.0492 258.94 35.5 258.694 35.017C258.452 34.5341 258.107 34.1529 257.657 33.8736C257.212 33.5942 256.686 33.4545 256.08 33.4545C255.412 33.4545 254.835 33.6203 254.347 33.9517C253.864 34.2784 253.492 34.7045 253.232 35.2301C252.972 35.7557 252.841 36.3191 252.841 36.9205V37.8864C252.841 38.7102 252.983 39.4086 253.268 39.9815C253.556 40.5497 253.956 40.983 254.468 41.2812C254.979 41.5748 255.573 41.7216 256.251 41.7216C256.691 41.7216 257.089 41.66 257.444 41.5369C257.804 41.4091 258.114 41.2197 258.374 40.9688C258.635 40.7131 258.836 40.3958 258.978 40.017L260.597 40.4716C260.427 41.0208 260.14 41.5038 259.738 41.9205C259.335 42.3324 258.838 42.6544 258.246 42.8864C257.654 43.1136 256.989 43.2273 256.251 43.2273ZM263.317 43V32.0909H264.937V33.7386H265.05C265.249 33.1989 265.609 32.7609 266.13 32.4247C266.651 32.0885 267.238 31.9205 267.891 31.9205C268.014 31.9205 268.168 31.9228 268.353 31.9276C268.537 31.9323 268.677 31.9394 268.772 31.9489V33.6534C268.715 33.6392 268.585 33.6179 268.381 33.5895C268.182 33.5563 267.972 33.5398 267.749 33.5398C267.219 33.5398 266.745 33.651 266.329 33.8736C265.917 34.0914 265.59 34.3944 265.349 34.7827C265.112 35.1662 264.993 35.6042 264.993 36.0966V43H263.317ZM272.17 47.0909C271.886 47.0909 271.633 47.0672 271.41 47.0199C271.188 46.9773 271.034 46.9347 270.949 46.892L271.375 45.4148C271.782 45.5189 272.142 45.5568 272.454 45.5284C272.767 45.5 273.044 45.3603 273.285 45.1094C273.532 44.8632 273.756 44.4631 273.96 43.9091L274.273 43.0568L270.238 32.0909H272.057L275.068 40.7841H275.182L278.193 32.0909H280.011L275.381 44.5909C275.172 45.1544 274.914 45.6207 274.606 45.9901C274.299 46.3641 273.941 46.6411 273.534 46.821C273.131 47.0009 272.677 47.0909 272.17 47.0909Z" fill="#31FFD7"/>
</svg>
