<svg width="347" height="52" viewBox="0 0 347 52" fill="none" xmlns="http://www.w3.org/2000/svg">
<g filter="url(#filter0_d_0_1)">
<rect x="6" y="4" width="335" height="40" fill="#31FFD7"/>
<rect x="6.5" y="4.5" width="334" height="39" stroke="#27E2C2"/>
</g>
<path d="M147.123 21.0795C147.028 20.7727 146.897 20.4981 146.731 20.2557C146.568 20.0095 146.371 19.7992 146.14 19.625C145.913 19.4508 145.651 19.3201 145.356 19.233C145.06 19.142 144.738 19.0966 144.39 19.0966C143.765 19.0966 143.208 19.2538 142.719 19.5682C142.231 19.8826 141.846 20.3447 141.566 20.9545C141.29 21.5606 141.151 22.2992 141.151 23.1705C141.151 24.0492 141.29 24.7936 141.566 25.4034C141.843 26.0133 142.227 26.4773 142.719 26.7955C143.212 27.1098 143.784 27.267 144.435 27.267C145.026 27.267 145.538 27.1534 145.969 26.9261C146.405 26.6989 146.74 26.3769 146.975 25.9602C147.21 25.5398 147.327 25.0473 147.327 24.483L147.805 24.5568H144.646V22.9091H149.367V24.3068C149.367 25.303 149.155 26.1648 148.731 26.892C148.307 27.6193 147.723 28.1799 146.981 28.5739C146.238 28.964 145.386 29.1591 144.424 29.1591C143.352 29.1591 142.411 28.9186 141.6 28.4375C140.793 27.9527 140.163 27.2652 139.708 26.375C139.257 25.4811 139.032 24.4205 139.032 23.1932C139.032 22.2538 139.165 21.4148 139.43 20.6761C139.699 19.9375 140.074 19.3106 140.555 18.7955C141.036 18.2765 141.6 17.8826 142.248 17.6136C142.896 17.3409 143.6 17.2045 144.362 17.2045C145.005 17.2045 145.606 17.2992 146.163 17.4886C146.719 17.6742 147.214 17.9394 147.646 18.2841C148.081 18.6288 148.439 19.0379 148.719 19.5114C149 19.9848 149.183 20.5076 149.271 21.0795H147.123ZM155.178 29.1705C154.303 29.1705 153.548 28.9886 152.911 28.625C152.279 28.2576 151.792 27.7386 151.451 27.0682C151.11 26.3939 150.94 25.6004 150.94 24.6875C150.94 23.7898 151.11 23.0019 151.451 22.3239C151.796 21.642 152.277 21.1117 152.894 20.733C153.512 20.3504 154.237 20.1591 155.07 20.1591C155.608 20.1591 156.116 20.2462 156.593 20.4205C157.074 20.5909 157.498 20.8561 157.866 21.2159C158.237 21.5758 158.529 22.0341 158.741 22.5909C158.953 23.1439 159.059 23.803 159.059 24.5682V25.1989H151.906V23.8125H157.087C157.084 23.4186 156.998 23.0682 156.832 22.7614C156.665 22.4508 156.432 22.2064 156.133 22.0284C155.837 21.8504 155.493 21.7614 155.099 21.7614C154.678 21.7614 154.309 21.8636 153.991 22.0682C153.673 22.2689 153.424 22.5341 153.246 22.8636C153.072 23.1894 152.983 23.5473 152.979 23.9375V25.1477C152.979 25.6553 153.072 26.0909 153.258 26.4545C153.443 26.8144 153.703 27.0909 154.036 27.2841C154.37 27.4735 154.76 27.5682 155.207 27.5682C155.506 27.5682 155.777 27.5265 156.019 27.4432C156.262 27.3561 156.472 27.2292 156.65 27.0625C156.828 26.8958 156.962 26.6894 157.053 26.4432L158.974 26.6591C158.853 27.1667 158.621 27.6098 158.281 27.9886C157.943 28.3636 157.512 28.6553 156.985 28.8636C156.459 29.0682 155.856 29.1705 155.178 29.1705ZM162.856 23.8864V29H160.799V20.2727H162.765V21.7557H162.867C163.068 21.267 163.388 20.8788 163.827 20.5909C164.271 20.303 164.818 20.1591 165.469 20.1591C166.072 20.1591 166.596 20.2879 167.043 20.5455C167.494 20.803 167.843 21.1761 168.089 21.6648C168.339 22.1534 168.462 22.7462 168.458 23.4432V29H166.401V23.7614C166.401 23.178 166.25 22.7216 165.947 22.392C165.647 22.0625 165.233 21.8977 164.702 21.8977C164.343 21.8977 164.022 21.9773 163.742 22.1364C163.466 22.2917 163.248 22.517 163.089 22.8125C162.933 23.108 162.856 23.4659 162.856 23.8864ZM174.413 29.1705C173.538 29.1705 172.782 28.9886 172.146 28.625C171.513 28.2576 171.026 27.7386 170.685 27.0682C170.344 26.3939 170.174 25.6004 170.174 24.6875C170.174 23.7898 170.344 23.0019 170.685 22.3239C171.03 21.642 171.511 21.1117 172.129 20.733C172.746 20.3504 173.471 20.1591 174.305 20.1591C174.843 20.1591 175.35 20.2462 175.827 20.4205C176.308 20.5909 176.733 20.8561 177.1 21.2159C177.471 21.5758 177.763 22.0341 177.975 22.5909C178.187 23.1439 178.293 23.803 178.293 24.5682V25.1989H171.14V23.8125H176.322C176.318 23.4186 176.233 23.0682 176.066 22.7614C175.899 22.4508 175.666 22.2064 175.367 22.0284C175.072 21.8504 174.727 21.7614 174.333 21.7614C173.913 21.7614 173.543 21.8636 173.225 22.0682C172.907 22.2689 172.659 22.5341 172.481 22.8636C172.307 23.1894 172.218 23.5473 172.214 23.9375V25.1477C172.214 25.6553 172.307 26.0909 172.492 26.4545C172.678 26.8144 172.937 27.0909 173.271 27.2841C173.604 27.4735 173.994 27.5682 174.441 27.5682C174.74 27.5682 175.011 27.5265 175.254 27.4432C175.496 27.3561 175.706 27.2292 175.884 27.0625C176.062 26.8958 176.197 26.6894 176.288 26.4432L178.208 26.6591C178.087 27.1667 177.856 27.6098 177.515 27.9886C177.178 28.3636 176.746 28.6553 176.219 28.8636C175.693 29.0682 175.091 29.1705 174.413 29.1705ZM180.033 29V20.2727H182.028V21.7273H182.119C182.278 21.2235 182.55 20.8352 182.937 20.5625C183.327 20.286 183.772 20.1477 184.272 20.1477C184.386 20.1477 184.513 20.1534 184.653 20.1648C184.797 20.1723 184.916 20.1856 185.011 20.2045V22.0966C184.924 22.0663 184.785 22.0398 184.596 22.017C184.41 21.9905 184.23 21.9773 184.056 21.9773C183.681 21.9773 183.344 22.0587 183.045 22.2216C182.749 22.3807 182.516 22.6023 182.346 22.8864C182.175 23.1705 182.09 23.4981 182.09 23.8693V29H180.033ZM188.732 29.1761C188.179 29.1761 187.681 29.0777 187.238 28.8807C186.799 28.6799 186.45 28.3845 186.192 27.9943C185.939 27.6042 185.812 27.1231 185.812 26.5511C185.812 26.0587 185.903 25.6515 186.085 25.3295C186.266 25.0076 186.514 24.75 186.829 24.5568C187.143 24.3636 187.497 24.2178 187.891 24.1193C188.289 24.017 188.7 23.9432 189.124 23.8977C189.636 23.8447 190.05 23.7973 190.369 23.7557C190.687 23.7102 190.918 23.642 191.062 23.5511C191.21 23.4564 191.283 23.3106 191.283 23.1136V23.0795C191.283 22.6515 191.156 22.3201 190.903 22.0852C190.649 21.8504 190.283 21.733 189.806 21.733C189.302 21.733 188.903 21.8428 188.607 22.0625C188.316 22.2822 188.119 22.5417 188.016 22.8409L186.096 22.5682C186.247 22.0379 186.497 21.5947 186.846 21.2386C187.194 20.8788 187.621 20.6098 188.124 20.4318C188.628 20.25 189.185 20.1591 189.795 20.1591C190.215 20.1591 190.634 20.2083 191.05 20.3068C191.467 20.4053 191.848 20.5682 192.192 20.7955C192.537 21.0189 192.814 21.3239 193.022 21.7102C193.234 22.0966 193.34 22.5795 193.34 23.1591V29H191.363V27.8011H191.295C191.17 28.0436 190.994 28.2708 190.766 28.483C190.543 28.6913 190.261 28.8598 189.92 28.9886C189.583 29.1136 189.187 29.1761 188.732 29.1761ZM189.266 27.6648C189.679 27.6648 190.037 27.5833 190.34 27.4205C190.643 27.2538 190.876 27.0341 191.039 26.7614C191.206 26.4886 191.289 26.1913 191.289 25.8693V24.8409C191.225 24.8939 191.115 24.9432 190.96 24.9886C190.808 25.0341 190.638 25.0739 190.448 25.108C190.259 25.142 190.071 25.1723 189.886 25.1989C189.7 25.2254 189.539 25.2481 189.403 25.267C189.096 25.3087 188.821 25.3769 188.579 25.4716C188.336 25.5663 188.145 25.6989 188.005 25.8693C187.865 26.036 187.795 26.2519 187.795 26.517C187.795 26.8958 187.933 27.1818 188.21 27.375C188.486 27.5682 188.838 27.6648 189.266 27.6648ZM199.766 20.2727V21.8636H194.749V20.2727H199.766ZM195.988 18.1818H198.045V26.375C198.045 26.6515 198.086 26.8636 198.17 27.0114C198.257 27.1553 198.371 27.2538 198.511 27.3068C198.651 27.3598 198.806 27.3864 198.977 27.3864C199.105 27.3864 199.223 27.3769 199.329 27.358C199.439 27.339 199.522 27.322 199.579 27.3068L199.925 28.9148C199.816 28.9527 199.658 28.9943 199.454 29.0398C199.253 29.0852 199.007 29.1117 198.715 29.1193C198.2 29.1345 197.736 29.0568 197.323 28.8864C196.91 28.7121 196.583 28.4432 196.34 28.0795C196.102 27.7159 195.984 27.2614 195.988 26.7159V18.1818ZM205.256 29.1705C204.381 29.1705 203.626 28.9886 202.989 28.625C202.357 28.2576 201.87 27.7386 201.529 27.0682C201.188 26.3939 201.018 25.6004 201.018 24.6875C201.018 23.7898 201.188 23.0019 201.529 22.3239C201.874 21.642 202.355 21.1117 202.972 20.733C203.59 20.3504 204.315 20.1591 205.148 20.1591C205.686 20.1591 206.194 20.2462 206.671 20.4205C207.152 20.5909 207.576 20.8561 207.944 21.2159C208.315 21.5758 208.607 22.0341 208.819 22.5909C209.031 23.1439 209.137 23.803 209.137 24.5682V25.1989H201.984V23.8125H207.165C207.162 23.4186 207.076 23.0682 206.91 22.7614C206.743 22.4508 206.51 22.2064 206.211 22.0284C205.915 21.8504 205.571 21.7614 205.177 21.7614C204.756 21.7614 204.387 21.8636 204.069 22.0682C203.751 22.2689 203.503 22.5341 203.325 22.8636C203.15 23.1894 203.061 23.5473 203.058 23.9375V25.1477C203.058 25.6553 203.15 26.0909 203.336 26.4545C203.522 26.8144 203.781 27.0909 204.114 27.2841C204.448 27.4735 204.838 27.5682 205.285 27.5682C205.584 27.5682 205.855 27.5265 206.097 27.4432C206.34 27.3561 206.55 27.2292 206.728 27.0625C206.906 26.8958 207.04 26.6894 207.131 26.4432L209.052 26.6591C208.931 27.1667 208.7 27.6098 208.359 27.9886C208.022 28.3636 207.59 28.6553 207.063 28.8636C206.537 29.0682 205.934 29.1705 205.256 29.1705Z" fill="black"/>
<defs>
<filter id="filter0_d_0_1" x="0" y="0" width="347" height="52" filterUnits="userSpaceOnUse" color-interpolation-filters="sRGB">
<feFlood flood-opacity="0" result="BackgroundImageFix"/>
<feColorMatrix in="SourceAlpha" type="matrix" values="0 0 0 0 0 0 0 0 0 0 0 0 0 0 0 0 0 0 127 0" result="hardAlpha"/>
<feOffset dy="2"/>
<feGaussianBlur stdDeviation="3"/>
<feComposite in2="hardAlpha" operator="out"/>
<feColorMatrix type="matrix" values="0 0 0 0 0.290196 0 0 0 0 0.752941 0 0 0 0 0.784314 0 0 0 0.68 0"/>
<feBlend mode="normal" in2="BackgroundImageFix" result="effect1_dropShadow_0_1"/>
<feBlend mode="normal" in="SourceGraphic" in2="effect1_dropShadow_0_1" result="shape"/>
</filter>
</defs>
</svg>
