<svg width="139" height="52" viewBox="0 0 139 52" fill="none" xmlns="http://www.w3.org/2000/svg">
<g filter="url(#filter0_d_10_268)">
<rect x="6.5" y="4.5" width="126" height="39" stroke="#27E2C2" shape-rendering="crispEdges"/>
<path d="M50.8627 29V20.2727H54.1355C54.8059 20.2727 55.3684 20.3892 55.823 20.6222C56.2804 20.8551 56.6255 21.1818 56.8585 21.6023C57.0943 22.0199 57.2122 22.5071 57.2122 23.0639C57.2122 23.6236 57.0929 24.1094 56.8542 24.5213C56.6184 24.9304 56.2704 25.2472 55.8102 25.4716C55.35 25.6932 54.7846 25.804 54.1142 25.804H51.7832V24.4915H53.9011C54.2931 24.4915 54.6142 24.4375 54.8642 24.3295C55.1142 24.2187 55.2988 24.0582 55.4181 23.848C55.5403 23.6349 55.6014 23.3736 55.6014 23.0639C55.6014 22.7543 55.5403 22.4901 55.4181 22.2713C55.296 22.0497 55.1099 21.8821 54.8599 21.7685C54.6099 21.652 54.2875 21.5938 53.8926 21.5938H52.4437V29H50.8627ZM55.3713 25.0455L57.5318 29H55.7676L53.6454 25.0455H55.3713ZM61.4032 29.1278C60.747 29.1278 60.1802 28.9915 59.7029 28.7188C59.2285 28.4432 58.8635 28.054 58.6078 27.5511C58.3521 27.0455 58.2243 26.4503 58.2243 25.7656C58.2243 25.0923 58.3521 24.5014 58.6078 23.9929C58.8663 23.4815 59.2271 23.0838 59.6902 22.7997C60.1532 22.5128 60.6973 22.3693 61.3223 22.3693C61.7257 22.3693 62.1064 22.4347 62.4643 22.5653C62.8251 22.6932 63.1433 22.892 63.4189 23.1619C63.6973 23.4318 63.916 23.7756 64.0751 24.1932C64.2342 24.608 64.3137 25.1023 64.3137 25.6761V26.1491H58.9487V25.1094H62.835C62.8322 24.8139 62.7683 24.5511 62.6433 24.321C62.5183 24.0881 62.3436 23.9048 62.1191 23.7713C61.8975 23.6378 61.639 23.571 61.3436 23.571C61.0282 23.571 60.7512 23.6477 60.5126 23.8011C60.274 23.9517 60.0879 24.1506 59.9544 24.3977C59.8237 24.642 59.7569 24.9105 59.7541 25.2031V26.1108C59.7541 26.4915 59.8237 26.8182 59.9629 27.0909C60.1021 27.3608 60.2967 27.5682 60.5467 27.7131C60.7967 27.8551 61.0893 27.9261 61.4245 27.9261C61.649 27.9261 61.8521 27.8949 62.0339 27.8324C62.2157 27.767 62.3734 27.6719 62.5069 27.5469C62.6404 27.4219 62.7413 27.267 62.8095 27.0824L64.2498 27.2443C64.1589 27.625 63.9856 27.9574 63.7299 28.2415C63.4771 28.5227 63.1532 28.7415 62.7583 28.8977C62.3635 29.0511 61.9118 29.1278 61.4032 29.1278ZM68.4654 31.5909C67.9114 31.5909 67.4355 31.5156 67.0378 31.3651C66.6401 31.2173 66.3205 31.0185 66.079 30.7685C65.8375 30.5185 65.6699 30.2415 65.5762 29.9375L66.9654 29.6009C67.0279 29.7287 67.1188 29.8551 67.2381 29.9801C67.3574 30.108 67.5179 30.2131 67.7196 30.2955C67.9242 30.3807 68.1813 30.4233 68.4909 30.4233C68.9284 30.4233 69.2907 30.3168 69.5776 30.1037C69.8645 29.8935 70.008 29.5469 70.008 29.0639V27.8239H69.9313C69.8517 27.983 69.7353 28.1463 69.5819 28.3139C69.4313 28.4815 69.231 28.6222 68.981 28.7358C68.7338 28.8494 68.4228 28.9062 68.0478 28.9062C67.5449 28.9062 67.089 28.7884 66.6799 28.5526C66.2736 28.3139 65.9498 27.9588 65.7083 27.4872C65.4696 27.0128 65.3503 26.419 65.3503 25.706C65.3503 24.9872 65.4696 24.3807 65.7083 23.8864C65.9498 23.3892 66.275 23.0128 66.6841 22.7571C67.0932 22.4986 67.5492 22.3693 68.052 22.3693C68.4355 22.3693 68.7509 22.4347 68.998 22.5653C69.248 22.6932 69.4469 22.848 69.5946 23.0298C69.7424 23.2088 69.8546 23.3778 69.9313 23.5369H70.0165V22.4545H71.5378V29.1065C71.5378 29.6662 71.4043 30.1293 71.1373 30.4957C70.8702 30.8622 70.5051 31.1364 70.0421 31.3182C69.579 31.5 69.0534 31.5909 68.4654 31.5909ZM68.4782 27.696C68.8049 27.696 69.0833 27.6165 69.3134 27.4574C69.5435 27.2983 69.7182 27.0696 69.8375 26.7713C69.9569 26.473 70.0165 26.1151 70.0165 25.6974C70.0165 25.2855 69.9569 24.9247 69.8375 24.6151C69.7211 24.3054 69.5478 24.0653 69.3176 23.8949C69.0904 23.7216 68.8105 23.6349 68.4782 23.6349C68.1344 23.6349 67.8475 23.7244 67.6174 23.9034C67.3873 24.0824 67.214 24.3281 67.0975 24.6406C66.981 24.9503 66.9228 25.3026 66.9228 25.6974C66.9228 26.098 66.981 26.4489 67.0975 26.75C67.2168 27.0483 67.3915 27.2812 67.6216 27.4489C67.8546 27.6136 68.1401 27.696 68.4782 27.696ZM76.0165 29.1278C75.3603 29.1278 74.7935 28.9915 74.3162 28.7188C73.8418 28.4432 73.4767 28.054 73.2211 27.5511C72.9654 27.0455 72.8375 26.4503 72.8375 25.7656C72.8375 25.0923 72.9654 24.5014 73.2211 23.9929C73.4796 23.4815 73.8404 23.0838 74.3034 22.7997C74.7665 22.5128 75.3105 22.3693 75.9355 22.3693C76.339 22.3693 76.7196 22.4347 77.0776 22.5653C77.4384 22.6932 77.7566 22.892 78.0321 23.1619C78.3105 23.4318 78.5293 23.7756 78.6884 24.1932C78.8475 24.608 78.927 25.1023 78.927 25.6761V26.1491H73.562V25.1094H77.4483C77.4455 24.8139 77.3816 24.5511 77.2566 24.321C77.1316 24.0881 76.9569 23.9048 76.7324 23.7713C76.5108 23.6378 76.2523 23.571 75.9569 23.571C75.6415 23.571 75.3645 23.6477 75.1259 23.8011C74.8873 23.9517 74.7012 24.1506 74.5676 24.3977C74.437 24.642 74.3702 24.9105 74.3674 25.2031V26.1108C74.3674 26.4915 74.437 26.8182 74.5762 27.0909C74.7154 27.3608 74.91 27.5682 75.16 27.7131C75.41 27.8551 75.7026 27.9261 76.0378 27.9261C76.2623 27.9261 76.4654 27.8949 76.6472 27.8324C76.829 27.767 76.9867 27.6719 77.1202 27.5469C77.2537 27.4219 77.3546 27.267 77.4228 27.0824L78.8631 27.2443C78.7722 27.625 78.5989 27.9574 78.3432 28.2415C78.0904 28.5227 77.7665 28.7415 77.3716 28.8977C76.9767 29.0511 76.525 29.1278 76.0165 29.1278ZM81.7747 25.1648V29H80.2321V22.4545H81.7065V23.5668H81.7832C81.9338 23.2003 82.1738 22.9091 82.5034 22.6932C82.8358 22.4773 83.2463 22.3693 83.7349 22.3693C84.1866 22.3693 84.5801 22.4659 84.9153 22.6591C85.2534 22.8523 85.5147 23.1321 85.6994 23.4986C85.8869 23.8651 85.9792 24.3097 85.9764 24.8324V29H84.4338V25.071C84.4338 24.6335 84.3201 24.2912 84.0929 24.044C83.8684 23.7969 83.5574 23.6733 83.1596 23.6733C82.8897 23.6733 82.6497 23.733 82.4395 23.8523C82.2321 23.9687 82.0687 24.1378 81.9494 24.3594C81.8329 24.581 81.7747 24.8494 81.7747 25.1648ZM90.4423 29.1278C89.786 29.1278 89.2193 28.9915 88.742 28.7188C88.2676 28.4432 87.9025 28.054 87.6468 27.5511C87.3912 27.0455 87.2633 26.4503 87.2633 25.7656C87.2633 25.0923 87.3912 24.5014 87.6468 23.9929C87.9054 23.4815 88.2662 23.0838 88.7292 22.7997C89.1923 22.5128 89.7363 22.3693 90.3613 22.3693C90.7647 22.3693 91.1454 22.4347 91.5034 22.5653C91.8642 22.6932 92.1824 22.892 92.4579 23.1619C92.7363 23.4318 92.9551 23.7756 93.1142 24.1932C93.2733 24.608 93.3528 25.1023 93.3528 25.6761V26.1491H87.9877V25.1094H91.8741C91.8713 24.8139 91.8074 24.5511 91.6824 24.321C91.5574 24.0881 91.3826 23.9048 91.1582 23.7713C90.9366 23.6378 90.6781 23.571 90.3826 23.571C90.0673 23.571 89.7903 23.6477 89.5517 23.8011C89.313 23.9517 89.127 24.1506 88.9934 24.3977C88.8627 24.642 88.796 24.9105 88.7931 25.2031V26.1108C88.7931 26.4915 88.8627 26.8182 89.002 27.0909C89.1412 27.3608 89.3358 27.5682 89.5858 27.7131C89.8358 27.8551 90.1284 27.9261 90.4636 27.9261C90.688 27.9261 90.8912 27.8949 91.073 27.8324C91.2548 27.767 91.4125 27.6719 91.546 27.5469C91.6795 27.4219 91.7804 27.267 91.8485 27.0824L93.2889 27.2443C93.198 27.625 93.0247 27.9574 92.769 28.2415C92.5162 28.5227 92.1923 28.7415 91.7974 28.8977C91.4025 29.0511 90.9508 29.1278 90.4423 29.1278ZM94.6578 29V22.4545H96.1536V23.5455H96.2218C96.3411 23.1676 96.5456 22.8764 96.8354 22.6719C97.128 22.4645 97.4618 22.3608 97.8368 22.3608C97.9221 22.3608 98.0172 22.3651 98.1223 22.3736C98.2303 22.3793 98.3198 22.3892 98.3908 22.4034V23.8224C98.3255 23.7997 98.2218 23.7798 98.0797 23.7628C97.9405 23.7429 97.8056 23.733 97.6749 23.733C97.3936 23.733 97.1408 23.794 96.9164 23.9162C96.6948 24.0355 96.5201 24.2017 96.3922 24.4148C96.2644 24.6278 96.2005 24.8736 96.2005 25.152V29H94.6578ZM101.182 29.1321C100.767 29.1321 100.394 29.0582 100.061 28.9105C99.7317 28.7599 99.4703 28.5384 99.2772 28.2457C99.0868 27.9531 98.9917 27.5923 98.9917 27.1634C98.9917 26.794 99.0598 26.4886 99.1962 26.2472C99.3326 26.0057 99.5186 25.8125 99.7544 25.6676C99.9902 25.5227 100.256 25.4134 100.551 25.3395C100.85 25.2628 101.158 25.2074 101.476 25.1733C101.86 25.1335 102.171 25.098 102.409 25.0668C102.648 25.0327 102.821 24.9815 102.929 24.9134C103.04 24.8423 103.095 24.733 103.095 24.5852V24.5597C103.095 24.2386 103 23.9901 102.81 23.8139C102.619 23.6378 102.345 23.5497 101.987 23.5497C101.61 23.5497 101.31 23.6321 101.088 23.7969C100.869 23.9616 100.722 24.1562 100.645 24.3807L99.2047 24.1761C99.3184 23.7784 99.5059 23.446 99.7672 23.179C100.029 22.9091 100.348 22.7074 100.726 22.5739C101.104 22.4375 101.521 22.3693 101.979 22.3693C102.294 22.3693 102.608 22.4062 102.921 22.4801C103.233 22.554 103.519 22.6761 103.777 22.8466C104.036 23.0142 104.243 23.2429 104.399 23.5327C104.558 23.8224 104.638 24.1847 104.638 24.6193V29H103.155V28.1009H103.104C103.01 28.2827 102.878 28.4531 102.708 28.6122C102.54 28.7685 102.328 28.8949 102.073 28.9915C101.82 29.0852 101.523 29.1321 101.182 29.1321ZM101.583 27.9986C101.892 27.9986 102.161 27.9375 102.388 27.8153C102.615 27.6903 102.79 27.5256 102.912 27.321C103.037 27.1165 103.1 26.8935 103.1 26.652V25.8807C103.051 25.9205 102.969 25.9574 102.852 25.9915C102.739 26.0256 102.611 26.0554 102.469 26.081C102.327 26.1065 102.186 26.1293 102.047 26.1491C101.908 26.169 101.787 26.1861 101.685 26.2003C101.455 26.2315 101.249 26.2827 101.067 26.3537C100.885 26.4247 100.742 26.5241 100.637 26.652C100.531 26.777 100.479 26.9389 100.479 27.1378C100.479 27.4219 100.583 27.6364 100.79 27.7812C100.997 27.9261 101.262 27.9986 101.583 27.9986ZM109.458 22.4545V23.6477H105.695V22.4545H109.458ZM106.624 20.8864H108.166V27.0312C108.166 27.2386 108.198 27.3977 108.26 27.5085C108.325 27.6165 108.411 27.6903 108.516 27.7301C108.621 27.7699 108.737 27.7898 108.865 27.7898C108.962 27.7898 109.05 27.7827 109.129 27.7685C109.212 27.7543 109.274 27.7415 109.317 27.7301L109.577 28.9361C109.494 28.9645 109.377 28.9957 109.223 29.0298C109.073 29.0639 108.888 29.0838 108.669 29.0895C108.283 29.1009 107.935 29.0426 107.625 28.9148C107.316 28.7841 107.07 28.5824 106.888 28.3097C106.709 28.0369 106.621 27.696 106.624 27.2869V20.8864ZM113.575 29.1278C112.919 29.1278 112.352 28.9915 111.875 28.7188C111.4 28.4432 111.035 28.054 110.78 27.5511C110.524 27.0455 110.396 26.4503 110.396 25.7656C110.396 25.0923 110.524 24.5014 110.78 23.9929C111.038 23.4815 111.399 23.0838 111.862 22.7997C112.325 22.5128 112.869 22.3693 113.494 22.3693C113.898 22.3693 114.278 22.4347 114.636 22.5653C114.997 22.6932 115.315 22.892 115.591 23.1619C115.869 23.4318 116.088 23.7756 116.247 24.1932C116.406 24.608 116.486 25.1023 116.486 25.6761V26.1491H111.121V25.1094H115.007C115.004 24.8139 114.94 24.5511 114.815 24.321C114.69 24.0881 114.515 23.9048 114.291 23.7713C114.069 23.6378 113.811 23.571 113.515 23.571C113.2 23.571 112.923 23.6477 112.684 23.8011C112.446 23.9517 112.26 24.1506 112.126 24.3977C111.996 24.642 111.929 24.9105 111.926 25.2031V26.1108C111.926 26.4915 111.996 26.8182 112.135 27.0909C112.274 27.3608 112.469 27.5682 112.719 27.7131C112.969 27.8551 113.261 27.9261 113.596 27.9261C113.821 27.9261 114.024 27.8949 114.206 27.8324C114.388 27.767 114.545 27.6719 114.679 27.5469C114.812 27.4219 114.913 27.267 114.981 27.0824L116.422 27.2443C116.331 27.625 116.157 27.9574 115.902 28.2415C115.649 28.5227 115.325 28.7415 114.93 28.8977C114.535 29.0511 114.084 29.1278 113.575 29.1278Z" fill="#31FFD7"/>
<path d="M32.1676 17.3335C33.0739 17.3364 33.9707 17.5146 34.8059 17.8579C35.6412 18.2012 36.3984 18.7027 37.0336 19.3334H34.9006C34.7194 19.3334 34.5456 19.4037 34.4175 19.5287C34.2893 19.6537 34.2173 19.8233 34.2173 20.0001C34.2173 20.1769 34.2893 20.3464 34.4175 20.4715C34.5456 20.5965 34.7194 20.6667 34.9006 20.6667H37.7312C38.0677 20.6665 38.3903 20.5361 38.6282 20.3039C38.8661 20.0718 38.9998 19.757 39 19.4287V16.6668C39 16.49 38.928 16.3205 38.7999 16.1954C38.6718 16.0704 38.498 16.0002 38.3168 16.0002C38.1356 16.0002 37.9618 16.0704 37.8336 16.1954C37.7055 16.3205 37.6335 16.49 37.6335 16.6668V18.0521C36.5042 17.0598 35.1141 16.3938 33.6189 16.1287C32.1236 15.8636 30.5823 16.0099 29.1674 16.5511C27.7525 17.0924 26.52 18.0073 25.6079 19.1934C24.6957 20.3794 24.14 21.7898 24.0029 23.2666C23.9941 23.3595 24.0052 23.4531 24.0355 23.5415C24.0658 23.6299 24.1146 23.7112 24.1789 23.7802C24.2432 23.8492 24.3215 23.9044 24.4088 23.9422C24.4962 23.98 24.5906 23.9997 24.6862 23.9999C24.8533 24.002 25.0152 23.9432 25.1402 23.8349C25.2651 23.7267 25.3442 23.5768 25.3619 23.4146C25.514 21.7552 26.2966 20.2112 27.5558 19.086C28.8151 17.9608 30.4601 17.3357 32.1676 17.3335Z" fill="#31FFD7"/>
<path d="M39.3145 24.0001C39.1474 23.998 38.9855 24.0568 38.8605 24.1651C38.7355 24.2733 38.6565 24.4232 38.6388 24.5854C38.5258 25.8542 38.0423 27.0647 37.2454 28.0734C36.4486 29.0821 35.3719 29.8466 34.1432 30.2762C32.9144 30.7059 31.5852 30.7826 30.3131 30.4973C29.041 30.212 27.8795 29.5766 26.9664 28.6666H29.0994C29.2806 28.6666 29.4544 28.5963 29.5825 28.4713C29.7107 28.3463 29.7827 28.1767 29.7827 27.9999C29.7827 27.8231 29.7107 27.6536 29.5825 27.5285C29.4544 27.4035 29.2806 27.3333 29.0994 27.3333H26.2688C26.1021 27.3332 25.9371 27.3652 25.7831 27.4273C25.6292 27.4895 25.4892 27.5807 25.3714 27.6957C25.2536 27.8107 25.1601 27.9472 25.0964 28.0974C25.0327 28.2476 24.9999 28.4087 25 28.5713V31.3332C25 31.51 25.072 31.6795 25.2001 31.8046C25.3282 31.9296 25.502 31.9998 25.6832 31.9998C25.8644 31.9998 26.0382 31.9296 26.1664 31.8046C26.2945 31.6795 26.3665 31.51 26.3665 31.3332V29.9479C27.4957 30.9402 28.8859 31.6062 30.3811 31.8713C31.8764 32.1364 33.4177 31.9901 34.8326 31.4489C36.2475 30.9076 37.48 29.9927 38.3921 28.8066C39.3042 27.6206 39.86 26.2102 39.9971 24.7334C40.0059 24.6405 39.9948 24.5469 39.9645 24.4585C39.9342 24.3701 39.8853 24.2888 39.8211 24.2198C39.7568 24.1508 39.6785 24.0956 39.5912 24.0578C39.5038 24.02 39.4101 24.0003 39.3145 24.0001Z" fill="#31FFD7"/>
</g>
<defs>
<filter id="filter0_d_10_268" x="0" y="0" width="139" height="52" filterUnits="userSpaceOnUse" color-interpolation-filters="sRGB">
<feFlood flood-opacity="0" result="BackgroundImageFix"/>
<feColorMatrix in="SourceAlpha" type="matrix" values="0 0 0 0 0 0 0 0 0 0 0 0 0 0 0 0 0 0 127 0" result="hardAlpha"/>
<feOffset dy="2"/>
<feGaussianBlur stdDeviation="3"/>
<feComposite in2="hardAlpha" operator="out"/>
<feColorMatrix type="matrix" values="0 0 0 0 0.290196 0 0 0 0 0.752941 0 0 0 0 0.784314 0 0 0 0.68 0"/>
<feBlend mode="normal" in2="BackgroundImageFix" result="effect1_dropShadow_10_268"/>
<feBlend mode="normal" in="SourceGraphic" in2="effect1_dropShadow_10_268" result="shape"/>
</filter>
</defs>
</svg>
