<svg width="101" height="52" viewBox="0 0 101 52" fill="none" xmlns="http://www.w3.org/2000/svg">
<g filter="url(#filter0_d_10_270)">
<rect x="6.5" y="4.5" width="88" height="39" stroke="#27E2C2" shape-rendering="crispEdges"/>
<path d="M55.9767 22.6719C55.937 22.2997 55.7694 22.0099 55.4739 21.8026C55.1813 21.5952 54.8006 21.4915 54.3319 21.4915C54.0023 21.4915 53.7196 21.5412 53.4838 21.6406C53.248 21.7401 53.0676 21.875 52.9426 22.0455C52.8176 22.2159 52.7537 22.4105 52.7509 22.6293C52.7509 22.8111 52.7921 22.9687 52.8745 23.1023C52.9597 23.2358 53.0748 23.3494 53.2196 23.4432C53.3645 23.5341 53.525 23.6108 53.7012 23.6733C53.8773 23.7358 54.0549 23.7884 54.2338 23.831L55.052 24.0355C55.3816 24.1122 55.6983 24.2159 56.0023 24.3466C56.3091 24.4773 56.5833 24.642 56.8248 24.8409C57.0691 25.0398 57.2623 25.2798 57.4043 25.5611C57.5463 25.8423 57.6174 26.1719 57.6174 26.5497C57.6174 27.0611 57.4867 27.5114 57.2253 27.9006C56.964 28.2869 56.5861 28.5895 56.0918 28.8082C55.6003 29.0241 55.0051 29.1321 54.3063 29.1321C53.6273 29.1321 53.0378 29.027 52.5378 28.8168C52.0407 28.6065 51.6515 28.2997 51.3702 27.8963C51.0918 27.4929 50.9412 27.0014 50.9185 26.4219H52.4739C52.4966 26.7259 52.5904 26.9787 52.7551 27.1804C52.9199 27.3821 53.1344 27.5327 53.3986 27.6321C53.6657 27.7315 53.964 27.7812 54.2935 27.7812C54.6373 27.7812 54.9384 27.7301 55.1969 27.6278C55.4583 27.5227 55.6628 27.3778 55.8105 27.1932C55.9583 27.0057 56.0336 26.7869 56.0364 26.5369C56.0336 26.3097 55.9668 26.1222 55.8361 25.9744C55.7054 25.8239 55.5222 25.6989 55.2864 25.5994C55.0534 25.4972 54.7807 25.4062 54.4682 25.3267L53.4753 25.071C52.7566 24.8864 52.1884 24.6065 51.7708 24.2315C51.356 23.8537 51.1486 23.3523 51.1486 22.7273C51.1486 22.2131 51.2878 21.7628 51.5662 21.3764C51.8475 20.9901 52.2296 20.6903 52.7125 20.4773C53.1955 20.2614 53.7424 20.1534 54.3532 20.1534C54.9725 20.1534 55.5151 20.2614 55.981 20.4773C56.4498 20.6903 56.8176 20.9872 57.0847 21.3679C57.3517 21.7457 57.4895 22.1804 57.498 22.6719H55.9767ZM60.8422 29.1321C60.4274 29.1321 60.0538 29.0582 59.7214 28.9105C59.3919 28.7599 59.1305 28.5384 58.9373 28.2457C58.747 27.9531 58.6518 27.5923 58.6518 27.1634C58.6518 26.794 58.72 26.4886 58.8564 26.2472C58.9927 26.0057 59.1788 25.8125 59.4146 25.6676C59.6504 25.5227 59.916 25.4134 60.2115 25.3395C60.5098 25.2628 60.818 25.2074 61.1362 25.1733C61.5197 25.1335 61.8308 25.098 62.0694 25.0668C62.3081 25.0327 62.4814 24.9815 62.5893 24.9134C62.7001 24.8423 62.7555 24.733 62.7555 24.5852V24.5597C62.7555 24.2386 62.6603 23.9901 62.47 23.8139C62.2797 23.6378 62.0055 23.5497 61.6475 23.5497C61.2697 23.5497 60.97 23.6321 60.7484 23.7969C60.5297 23.9616 60.3819 24.1562 60.3052 24.3807L58.8649 24.1761C58.9785 23.7784 59.166 23.446 59.4274 23.179C59.6887 22.9091 60.0083 22.7074 60.3862 22.5739C60.764 22.4375 61.1816 22.3693 61.639 22.3693C61.9544 22.3693 62.2683 22.4062 62.5808 22.4801C62.8933 22.554 63.1788 22.6761 63.4373 22.8466C63.6958 23.0142 63.9032 23.2429 64.0595 23.5327C64.2186 23.8224 64.2981 24.1847 64.2981 24.6193V29H62.8152V28.1009H62.764C62.6703 28.2827 62.5382 28.4531 62.3677 28.6122C62.2001 28.7685 61.9885 28.8949 61.7328 28.9915C61.4799 29.0852 61.1831 29.1321 60.8422 29.1321ZM61.2427 27.9986C61.5524 27.9986 61.8208 27.9375 62.0481 27.8153C62.2754 27.6903 62.4501 27.5256 62.5723 27.321C62.6973 27.1165 62.7598 26.8935 62.7598 26.652V25.8807C62.7115 25.9205 62.6291 25.9574 62.5126 25.9915C62.399 26.0256 62.2711 26.0554 62.1291 26.081C61.987 26.1065 61.8464 26.1293 61.7072 26.1491C61.568 26.169 61.4473 26.1861 61.345 26.2003C61.1149 26.2315 60.9089 26.2827 60.7271 26.3537C60.5453 26.4247 60.4018 26.5241 60.2967 26.652C60.1916 26.777 60.139 26.9389 60.139 27.1378C60.139 27.4219 60.2427 27.6364 60.4501 27.7812C60.6575 27.9261 60.9217 27.9986 61.2427 27.9986ZM71.4615 22.4545L69.1305 29H67.426L65.095 22.4545H66.7399L68.2441 27.3168H68.3123L69.8208 22.4545H71.4615ZM75.204 29.1278C74.5478 29.1278 73.981 28.9915 73.5037 28.7188C73.0293 28.4432 72.6642 28.054 72.4086 27.5511C72.1529 27.0455 72.025 26.4503 72.025 25.7656C72.025 25.0923 72.1529 24.5014 72.4086 23.9929C72.6671 23.4815 73.0279 23.0838 73.4909 22.7997C73.954 22.5128 74.498 22.3693 75.123 22.3693C75.5265 22.3693 75.9071 22.4347 76.2651 22.5653C76.6259 22.6932 76.9441 22.892 77.2196 23.1619C77.498 23.4318 77.7168 23.7756 77.8759 24.1932C78.035 24.608 78.1145 25.1023 78.1145 25.6761V26.1491H72.7495V25.1094H76.6358C76.633 24.8139 76.5691 24.5511 76.4441 24.321C76.3191 24.0881 76.1444 23.9048 75.9199 23.7713C75.6983 23.6378 75.4398 23.571 75.1444 23.571C74.829 23.571 74.552 23.6477 74.3134 23.8011C74.0748 23.9517 73.8887 24.1506 73.7551 24.3977C73.6245 24.642 73.5577 24.9105 73.5549 25.2031V26.1108C73.5549 26.4915 73.6245 26.8182 73.7637 27.0909C73.9029 27.3608 74.0975 27.5682 74.3475 27.7131C74.5975 27.8551 74.8901 27.9261 75.2253 27.9261C75.4498 27.9261 75.6529 27.8949 75.8347 27.8324C76.0165 27.767 76.1742 27.6719 76.3077 27.5469C76.4412 27.4219 76.5421 27.267 76.6103 27.0824L78.0506 27.2443C77.9597 27.625 77.7864 27.9574 77.5307 28.2415C77.2779 28.5227 76.954 28.7415 76.5591 28.8977C76.1642 29.0511 75.7125 29.1278 75.204 29.1278Z" fill="#31FFD7"/>
<path d="M32 22.3333C31.3407 22.3333 30.6962 22.5288 30.1481 22.8951C29.5999 23.2614 29.1727 23.782 28.9204 24.391C28.6681 25.0001 28.6021 25.6704 28.7307 26.317C28.8593 26.9636 29.1768 27.5575 29.6429 28.0237C30.1091 28.4899 30.7031 28.8073 31.3497 28.9359C31.9963 29.0646 32.6665 28.9986 33.2756 28.7463C33.8847 28.494 34.4053 28.0667 34.7715 27.5186C35.1378 26.9704 35.3333 26.3259 35.3333 25.6667C35.3333 24.7826 34.9821 23.9348 34.357 23.3096C33.7319 22.6845 32.884 22.3333 32 22.3333ZM32 27.3333C31.6703 27.3333 31.3481 27.2356 31.074 27.0524C30.7999 26.8693 30.5863 26.609 30.4602 26.3045C30.334 25.9999 30.301 25.6648 30.3653 25.3415C30.4296 25.0182 30.5884 24.7212 30.8215 24.4882C31.0545 24.2551 31.3515 24.0963 31.6748 24.032C31.9981 23.9677 32.3332 24.0007 32.6378 24.1269C32.9423 24.253 33.2026 24.4666 33.3857 24.7407C33.5689 25.0148 33.6666 25.337 33.6666 25.6667C33.6666 26.1087 33.491 26.5326 33.1785 26.8452C32.8659 27.1577 32.442 27.3333 32 27.3333Z" fill="#31FFD7"/>
<path d="M39.3166 18.5292L37.4708 16.6834C37.1492 16.36 36.7666 16.1036 36.3452 15.9291C35.9238 15.7546 35.472 15.6654 35.0159 15.6667H27.1388C26.2183 15.6678 25.3358 16.034 24.6848 16.6849C24.0339 17.3358 23.6677 18.2184 23.6666 19.1389V28.8611C23.6677 29.7817 24.0339 30.6642 24.6848 31.3151C25.3358 31.9661 26.2183 32.3322 27.1388 32.3333H36.8611C37.7816 32.3322 38.6641 31.9661 39.3151 31.3151C39.966 30.6642 40.3322 29.7817 40.3333 28.8611V20.984C40.3346 20.528 40.2454 20.0761 40.0709 19.6548C39.8963 19.2334 39.64 18.8508 39.3166 18.5292ZM35.4722 17.1111V17.75C35.4722 18.3026 35.2527 18.8325 34.862 19.2232C34.4713 19.6139 33.9414 19.8333 33.3888 19.8333H30.6111C30.0585 19.8333 29.5286 19.6139 29.1379 19.2232C28.7472 18.8325 28.5277 18.3026 28.5277 17.75V17.0556H35.0159C35.1696 17.0569 35.3227 17.0756 35.4722 17.1111ZM38.9444 28.8611C38.9444 29.4137 38.7249 29.9436 38.3342 30.3343C37.9435 30.725 37.4136 30.9445 36.8611 30.9445H27.1388C26.5863 30.9445 26.0564 30.725 25.6657 30.3343C25.275 29.9436 25.0555 29.4137 25.0555 28.8611V19.1389C25.0555 18.5864 25.275 18.0565 25.6657 17.6658C26.0564 17.2751 26.5863 17.0556 27.1388 17.0556V17.75C27.1399 18.6706 27.5061 19.5531 28.1571 20.204C28.808 20.855 29.6905 21.2211 30.6111 21.2222H33.3888C34.2621 21.2195 35.1021 20.8873 35.741 20.2919C36.3799 19.6966 36.7705 18.882 36.8347 18.0111L38.3347 19.5111C38.7239 19.9027 38.9429 20.432 38.9444 20.984V28.8611Z" fill="#31FFD7"/>
</g>
<defs>
<filter id="filter0_d_10_270" x="0" y="0" width="101" height="52" filterUnits="userSpaceOnUse" color-interpolation-filters="sRGB">
<feFlood flood-opacity="0" result="BackgroundImageFix"/>
<feColorMatrix in="SourceAlpha" type="matrix" values="0 0 0 0 0 0 0 0 0 0 0 0 0 0 0 0 0 0 127 0" result="hardAlpha"/>
<feOffset dy="2"/>
<feGaussianBlur stdDeviation="3"/>
<feComposite in2="hardAlpha" operator="out"/>
<feColorMatrix type="matrix" values="0 0 0 0 0.290196 0 0 0 0 0.752941 0 0 0 0 0.784314 0 0 0 0.68 0"/>
<feBlend mode="normal" in2="BackgroundImageFix" result="effect1_dropShadow_10_270"/>
<feBlend mode="normal" in="SourceGraphic" in2="effect1_dropShadow_10_270" result="shape"/>
</filter>
</defs>
</svg>
