<svg width="24" height="24" viewBox="0 0 24 24" fill="none" xmlns="http://www.w3.org/2000/svg">
<path d="M10.0892 13.9108C10.415 14.2367 10.415 14.7633 10.0892 15.0892L4.845 20.3333H8.66667C9.1275 20.3333 9.5 20.7067 9.5 21.1667C9.5 21.6267 9.1275 22 8.66667 22H4.5C3.12167 22 2 20.8783 2 19.5V15.3333C2 14.8733 2.3725 14.5 2.83333 14.5C3.29417 14.5 3.66667 14.8733 3.66667 15.3333V19.155L8.91083 13.9108C9.23667 13.585 9.76333 13.585 10.0892 13.9108ZM19.5 2H15.3333C14.8725 2 14.5 2.37333 14.5 2.83333C14.5 3.29333 14.8725 3.66667 15.3333 3.66667H19.155L13.9108 8.91083C13.585 9.23667 13.585 9.76333 13.9108 10.0892C14.0733 10.2517 14.2867 10.3333 14.5 10.3333C14.7133 10.3333 14.9267 10.2517 15.0892 10.0892L20.3333 4.845V8.66667C20.3333 9.12667 20.7058 9.5 21.1667 9.5C21.6275 9.5 22 9.12667 22 8.66667V4.5C22 3.12167 20.8783 2 19.5 2Z" fill="white"/>
</svg>
