<svg width="36" height="36" viewBox="0 0 36 36" fill="none" xmlns="http://www.w3.org/2000/svg">
<circle cx="18" cy="18" r="18" fill="#31FFD7"/>
<path d="M21.1401 8.96001L12.1101 11.96C6.04012 13.99 6.04012 17.3 12.1101 19.32L14.7901 20.21L15.6801 22.89C17.7001 28.96 21.0201 28.96 23.0401 22.89L26.0501 13.87C27.3901 9.82001 25.1901 7.61001 21.1401 8.96001ZM21.4601 14.34L17.6601 18.16C17.5101 18.31 17.3201 18.38 17.1301 18.38C16.9401 18.38 16.7501 18.31 16.6001 18.16C16.3101 17.87 16.3101 17.39 16.6001 17.1L20.4001 13.28C20.6901 12.99 21.1701 12.99 21.4601 13.28C21.7501 13.57 21.7501 14.05 21.4601 14.34Z" fill="black"/>
</svg>
