<svg width="106" height="52" viewBox="0 0 106 52" fill="none" xmlns="http://www.w3.org/2000/svg">
<g filter="url(#filter0_d_10_269)">
<rect x="6.5" y="4.5" width="93" height="39" stroke="#27E2C2" shape-rendering="crispEdges"/>
<path d="M55.7814 22.6719C55.7417 22.2997 55.574 22.0099 55.2786 21.8026C54.986 21.5952 54.6053 21.4915 54.1365 21.4915C53.807 21.4915 53.5243 21.5412 53.2885 21.6406C53.0527 21.7401 52.8723 21.875 52.7473 22.0455C52.6223 22.2159 52.5584 22.4105 52.5556 22.6293C52.5556 22.8111 52.5968 22.9687 52.6792 23.1023C52.7644 23.2358 52.8794 23.3494 53.0243 23.4432C53.1692 23.5341 53.3297 23.6108 53.5059 23.6733C53.682 23.7358 53.8596 23.7884 54.0385 23.831L54.8567 24.0355C55.1863 24.1122 55.503 24.2159 55.807 24.3466C56.1138 24.4773 56.388 24.642 56.6294 24.8409C56.8738 25.0398 57.0669 25.2798 57.209 25.5611C57.351 25.8423 57.4221 26.1719 57.4221 26.5497C57.4221 27.0611 57.2914 27.5114 57.03 27.9006C56.7686 28.2869 56.3908 28.5895 55.8965 28.8082C55.405 29.0241 54.8098 29.1321 54.111 29.1321C53.432 29.1321 52.8425 29.027 52.3425 28.8168C51.8453 28.6065 51.4561 28.2997 51.1749 27.8963C50.8965 27.4929 50.7459 27.0014 50.7232 26.4219H52.2786C52.3013 26.7259 52.3951 26.9787 52.5598 27.1804C52.7246 27.3821 52.9391 27.5327 53.2033 27.6321C53.4703 27.7315 53.7686 27.7812 54.0982 27.7812C54.4419 27.7812 54.7431 27.7301 55.0016 27.6278C55.263 27.5227 55.4675 27.3778 55.6152 27.1932C55.763 27.0057 55.8382 26.7869 55.8411 26.5369C55.8382 26.3097 55.7715 26.1222 55.6408 25.9744C55.5101 25.8239 55.3269 25.6989 55.0911 25.5994C54.8581 25.4972 54.5854 25.4062 54.2729 25.3267L53.28 25.071C52.5613 24.8864 51.9931 24.6065 51.5755 24.2315C51.1607 23.8537 50.9533 23.3523 50.9533 22.7273C50.9533 22.2131 51.0925 21.7628 51.3709 21.3764C51.6522 20.9901 52.0343 20.6903 52.5172 20.4773C53.0002 20.2614 53.5471 20.1534 54.1578 20.1534C54.7772 20.1534 55.3198 20.2614 55.7857 20.4773C56.2544 20.6903 56.6223 20.9872 56.8894 21.3679C57.1564 21.7457 57.2942 22.1804 57.3027 22.6719H55.7814ZM60.3059 25.1648V29H58.7633V20.2727H60.2718V23.5668H60.3485C60.502 23.1974 60.7392 22.9062 61.0602 22.6932C61.3841 22.4773 61.796 22.3693 62.296 22.3693C62.7505 22.3693 63.1468 22.4645 63.4849 22.6548C63.823 22.8452 64.0843 23.1236 64.269 23.4901C64.4565 23.8565 64.5502 24.304 64.5502 24.8324V29H63.0076V25.071C63.0076 24.6307 62.894 24.2884 62.6667 24.044C62.4423 23.7969 62.127 23.6733 61.7207 23.6733C61.448 23.6733 61.2037 23.733 60.9877 23.8523C60.7747 23.9687 60.6071 24.1378 60.4849 24.3594C60.3656 24.581 60.3059 24.8494 60.3059 25.1648ZM68.0062 29.1321C67.5914 29.1321 67.2179 29.0582 66.8855 28.9105C66.5559 28.7599 66.2946 28.5384 66.1014 28.2457C65.911 27.9531 65.8159 27.5923 65.8159 27.1634C65.8159 26.794 65.8841 26.4886 66.0204 26.2472C66.1568 26.0057 66.3429 25.8125 66.5787 25.6676C66.8145 25.5227 67.0801 25.4134 67.3755 25.3395C67.6738 25.2628 67.9821 25.2074 68.3002 25.1733C68.6838 25.1335 68.9949 25.098 69.2335 25.0668C69.4721 25.0327 69.6454 24.9815 69.7534 24.9134C69.8642 24.8423 69.9196 24.733 69.9196 24.5852V24.5597C69.9196 24.2386 69.8244 23.9901 69.6341 23.8139C69.4437 23.6378 69.1696 23.5497 68.8116 23.5497C68.4338 23.5497 68.1341 23.6321 67.9125 23.7969C67.6937 23.9616 67.546 24.1562 67.4693 24.3807L66.0289 24.1761C66.1426 23.7784 66.3301 23.446 66.5914 23.179C66.8528 22.9091 67.1724 22.7074 67.5502 22.5739C67.9281 22.4375 68.3457 22.3693 68.8031 22.3693C69.1184 22.3693 69.4324 22.4062 69.7449 22.4801C70.0574 22.554 70.3429 22.6761 70.6014 22.8466C70.8599 23.0142 71.0673 23.2429 71.2235 23.5327C71.3826 23.8224 71.4622 24.1847 71.4622 24.6193V29H69.9792V28.1009H69.9281C69.8343 28.2827 69.7022 28.4531 69.5318 28.6122C69.3642 28.7685 69.1525 28.8949 68.8968 28.9915C68.644 29.0852 68.3471 29.1321 68.0062 29.1321ZM68.4068 27.9986C68.7164 27.9986 68.9849 27.9375 69.2122 27.8153C69.4395 27.6903 69.6142 27.5256 69.7363 27.321C69.8613 27.1165 69.9238 26.8935 69.9238 26.652V25.8807C69.8755 25.9205 69.7931 25.9574 69.6767 25.9915C69.563 26.0256 69.4352 26.0554 69.2931 26.081C69.1511 26.1065 69.0105 26.1293 68.8713 26.1491C68.7321 26.169 68.6113 26.1861 68.5091 26.2003C68.2789 26.2315 68.073 26.2827 67.8912 26.3537C67.7093 26.4247 67.5659 26.5241 67.4608 26.652C67.3556 26.777 67.3031 26.9389 67.3031 27.1378C67.3031 27.4219 67.4068 27.6364 67.6142 27.7812C67.8216 27.9261 68.0858 27.9986 68.4068 27.9986ZM73.0133 29V22.4545H74.5091V23.5455H74.5772C74.6966 23.1676 74.9011 22.8764 75.1909 22.6719C75.4835 22.4645 75.8173 22.3608 76.1923 22.3608C76.2775 22.3608 76.3727 22.3651 76.4778 22.3736C76.5858 22.3793 76.6752 22.3892 76.7463 22.4034V23.8224C76.6809 23.7997 76.5772 23.7798 76.4352 23.7628C76.296 23.7429 76.161 23.733 76.0304 23.733C75.7491 23.733 75.4963 23.794 75.2718 23.9162C75.0502 24.0355 74.8755 24.2017 74.7477 24.4148C74.6199 24.6278 74.5559 24.8736 74.5559 25.152V29H73.0133ZM80.3993 29.1278C79.7431 29.1278 79.1763 28.9915 78.699 28.7188C78.2246 28.4432 77.8596 28.054 77.6039 27.5511C77.3482 27.0455 77.2203 26.4503 77.2203 25.7656C77.2203 25.0923 77.3482 24.5014 77.6039 23.9929C77.8624 23.4815 78.2232 23.0838 78.6863 22.7997C79.1493 22.5128 79.6934 22.3693 80.3184 22.3693C80.7218 22.3693 81.1025 22.4347 81.4604 22.5653C81.8212 22.6932 82.1394 22.892 82.415 23.1619C82.6934 23.4318 82.9121 23.7756 83.0712 24.1932C83.2303 24.608 83.3098 25.1023 83.3098 25.6761V26.1491H77.9448V25.1094H81.8311C81.8283 24.8139 81.7644 24.5511 81.6394 24.321C81.5144 24.0881 81.3397 23.9048 81.1152 23.7713C80.8936 23.6378 80.6351 23.571 80.3397 23.571C80.0243 23.571 79.7473 23.6477 79.5087 23.8011C79.2701 23.9517 79.084 24.1506 78.9505 24.3977C78.8198 24.642 78.753 24.9105 78.7502 25.2031V26.1108C78.7502 26.4915 78.8198 26.8182 78.959 27.0909C79.0982 27.3608 79.2928 27.5682 79.5428 27.7131C79.7928 27.8551 80.0854 27.9261 80.4206 27.9261C80.6451 27.9261 80.8482 27.8949 81.03 27.8324C81.2118 27.767 81.3695 27.6719 81.503 27.5469C81.6365 27.4219 81.7374 27.267 81.8056 27.0824L83.2459 27.2443C83.155 27.625 82.9817 27.9574 82.726 28.2415C82.4732 28.5227 82.1493 28.7415 81.7544 28.8977C81.3596 29.0511 80.9078 29.1278 80.3993 29.1278Z" fill="#31FFD7"/>
<path d="M36.8916 25.7777C36.3881 25.7781 35.8923 25.9011 35.4469 26.1362C35.0015 26.3712 34.62 26.7113 34.3352 27.1269L30.0008 25.1677C30.3087 24.4235 30.3099 23.5876 30.0041 22.8425L34.3325 20.8732C34.7546 21.4844 35.3815 21.9238 36.0995 22.1119C36.8176 22.2999 37.5791 22.2241 38.2461 21.8982C38.9131 21.5723 39.4413 21.0178 39.7349 20.3354C40.0285 19.6531 40.0681 18.8879 39.8464 18.1788C39.6248 17.4697 39.1566 16.8637 38.5268 16.4705C37.8971 16.0774 37.1474 15.9232 36.4138 16.036C35.6802 16.1488 35.0113 16.5211 34.5284 17.0853C34.0455 17.6495 33.7806 18.3683 33.7818 19.1113C33.7846 19.2872 33.8024 19.4625 33.8351 19.6353L29.2337 21.7285C28.7918 21.314 28.2385 21.0378 27.6419 20.9337C27.0453 20.8297 26.4313 20.9024 25.8754 21.1429C25.3195 21.3833 24.8459 21.7812 24.5127 22.2874C24.1795 22.7937 24.0013 23.3863 24 23.9926C23.9987 24.5988 24.1743 25.1923 24.5052 25.7C24.8362 26.2077 25.308 26.6076 25.8629 26.8505C26.4177 27.0934 27.0314 27.1688 27.6284 27.0674C28.2255 26.966 28.78 26.6922 29.2237 26.2796L33.8371 28.3649C33.805 28.5375 33.7874 28.7126 33.7845 28.8882C33.7843 29.5035 33.9665 30.1052 34.3079 30.6169C34.6494 31.1286 35.1347 31.5275 35.7026 31.763C36.2705 31.9986 36.8955 32.0603 37.4984 31.9403C38.1013 31.8202 38.6551 31.5239 39.0898 31.0888C39.5244 30.6536 39.8204 30.0992 39.9403 29.4956C40.0602 28.8921 39.9986 28.2664 39.7633 27.6979C39.528 27.1294 39.1296 26.6435 38.6184 26.3017C38.1072 25.9599 37.5063 25.7775 36.8916 25.7777ZM36.8916 17.3334C37.2428 17.3333 37.5863 17.4375 37.8784 17.6327C38.1706 17.828 38.3983 18.1056 38.5328 18.4305C38.6673 18.7554 38.7026 19.1129 38.6342 19.4578C38.5657 19.8027 38.3966 20.1196 38.1483 20.3683C37.8999 20.617 37.5835 20.7864 37.239 20.855C36.8944 20.9237 36.5373 20.8885 36.2128 20.754C35.8882 20.6194 35.6108 20.3915 35.4156 20.0992C35.2204 19.8068 35.1163 19.463 35.1163 19.1113C35.1166 18.64 35.3038 18.1881 35.6366 17.8548C35.9694 17.5215 36.4208 17.334 36.8916 17.3334ZM27.1254 25.7777C26.7742 25.7778 26.4307 25.6736 26.1386 25.4783C25.8464 25.2831 25.6187 25.0054 25.4842 24.6806C25.3497 24.3557 25.3144 23.9982 25.3829 23.6533C25.4513 23.3084 25.6204 22.9915 25.8687 22.7428C26.1171 22.4941 26.4335 22.3247 26.7781 22.2561C27.1226 22.1874 27.4797 22.2226 27.8043 22.3571C28.1288 22.4917 28.4062 22.7195 28.6014 23.0119C28.7966 23.3043 28.9007 23.6481 28.9007 23.9997C28.9002 24.471 28.713 24.9228 28.3802 25.2561C28.0474 25.5894 27.5962 25.7769 27.1254 25.7777ZM36.8916 30.6661C36.5403 30.6661 36.1969 30.5618 35.9049 30.3664C35.6128 30.1711 35.3852 29.8934 35.2508 29.5685C35.1164 29.2437 35.0812 28.8862 35.1497 28.5413C35.2183 28.1964 35.3874 27.8796 35.6358 27.631C35.8841 27.3823 36.2006 27.213 36.5451 27.1444C36.8896 27.0758 37.2467 27.111 37.5712 27.2456C37.8957 27.3802 38.1731 27.608 38.3682 27.9004C38.5634 28.1928 38.6675 28.5365 38.6675 28.8882C38.6672 29.3596 38.48 29.8116 38.147 30.1449C37.814 30.4783 37.3625 30.6657 36.8916 30.6661Z" fill="#31FFD7"/>
</g>
<defs>
<filter id="filter0_d_10_269" x="0" y="0" width="106" height="52" filterUnits="userSpaceOnUse" color-interpolation-filters="sRGB">
<feFlood flood-opacity="0" result="BackgroundImageFix"/>
<feColorMatrix in="SourceAlpha" type="matrix" values="0 0 0 0 0 0 0 0 0 0 0 0 0 0 0 0 0 0 127 0" result="hardAlpha"/>
<feOffset dy="2"/>
<feGaussianBlur stdDeviation="3"/>
<feComposite in2="hardAlpha" operator="out"/>
<feColorMatrix type="matrix" values="0 0 0 0 0.290196 0 0 0 0 0.752941 0 0 0 0 0.784314 0 0 0 0.68 0"/>
<feBlend mode="normal" in2="BackgroundImageFix" result="effect1_dropShadow_10_269"/>
<feBlend mode="normal" in="SourceGraphic" in2="effect1_dropShadow_10_269" result="shape"/>
</filter>
</defs>
</svg>
