<svg width="292" height="52" viewBox="0 0 292 52" fill="none" xmlns="http://www.w3.org/2000/svg">
<g filter="url(#filter0_d_0_1)">
<rect x="6" y="4" width="280" height="40" fill="#31FFD7"/>
<rect x="6.5" y="4.5" width="279" height="39" stroke="#27E2C2"/>
</g>
<path d="M134.411 17.92H127.611V21.36H132.191L133.891 23.08V28.26L132.191 30H127.351L125.631 28.26V26.88L127.611 24.98V28.26H131.911V23.08H127.351L125.631 21.36V17.92L127.351 16.18H132.671L134.411 17.92ZM142.185 19.62L140.445 21.36H139.205V28.26H141.665V30H138.965L137.225 28.26V21.36H134.765L136.505 19.62H137.225V18.16L139.205 16.18V19.62H142.185ZM150.328 30H148.348V28.52L146.868 30H144.888L143.168 28.26V24.82L144.888 23.08H148.148L146.508 24.8H145.128V28.26H148.348V21.36H142.908L144.388 19.62H148.608L150.328 21.36V30ZM160.568 23.08L158.588 25.06V21.36H155.648V30H153.668V19.62H155.648V21.12L157.088 19.62H158.848L160.568 21.36V23.08ZM167.986 19.62L166.246 21.36H165.006V28.26H167.466V30H164.766L163.026 28.26V21.36H160.566L162.306 19.62H163.026V18.16L165.006 16.18V19.62H167.986Z" fill="black"/>
<defs>
</defs>
</svg>
